Shantell SemiOrganic Wght-Style_3.ufo
<glyph name="comma" format="2">
  <advance width="283.0"/>
  <unicode hex="002C"/>
  <outline>
    <contour>
      <point x="107.0" y="-127.0" type="curve" smooth="yes"/>
      <point x="129.0" y="-127.0"/>
      <point x="149.0" y="-115.0"/>
      <point x="159.0" y="-97.0" type="curve" smooth="yes"/>
      <point x="192.0" y="-42.0"/>
      <point x="217.0" y="43.0"/>
      <point x="221.0" y="111.0" type="curve" smooth="yes"/>
      <point x="221.0" y="112.0"/>
      <point x="221.0" y="114.0"/>
      <point x="221.0" y="115.0" type="curve" smooth="yes"/>
      <point x="221.0" y="148.0"/>
      <point x="194.0" y="175.0"/>
      <point x="161.0" y="175.0" type="curve" smooth="yes"/>
      <point x="129.0" y="175.0"/>
      <point x="103.0" y="150.0"/>
      <point x="101.0" y="118.0" type="curve" smooth="yes"/>
      <point x="98.0" y="66.0"/>
      <point x="80.0" y="6.0"/>
      <point x="56.0" y="-36.0" type="curve" smooth="yes"/>
      <point x="50.0" y="-45.0"/>
      <point x="47.0" y="-55.0"/>
      <point x="47.0" y="-67.0" type="curve" smooth="yes"/>
      <point x="47.0" y="-100.0"/>
      <point x="74.0" y="-127.0"/>
    </contour>
  </outline>
</glyph>
<glyph name="hyphen" format="2">
  <advance width="495.0"/>
  <unicode hex="002D"/>
  <outline>
    <contour>
      <point x="140.0" y="189.0" type="curve" smooth="yes"/>
      <point x="209.0" y="215.0"/>
      <point x="284.0" y="239.0"/>
      <point x="377.0" y="245.0" type="curve" smooth="yes"/>
      <point x="408.0" y="247.0"/>
      <point x="433.0" y="273.0"/>
      <point x="433.0" y="305.0" type="curve" smooth="yes"/>
      <point x="433.0" y="338.0"/>
      <point x="406.0" y="365.0"/>
      <point x="373.0" y="365.0" type="curve" smooth="yes"/>
      <point x="308.0" y="365.0"/>
      <point x="198.0" y="335.0"/>
      <point x="127.0" y="311.0" type="curve" smooth="yes"/>
      <point x="70.0" y="287.0"/>
      <point x="62.0" y="263.0"/>
      <point x="62.0" y="230.0" type="curve" smooth="yes"/>
      <point x="62.0" y="194.0"/>
      <point x="99.0" y="173.0"/>
    </contour>
  </outline>
</glyph>
<glyph name="period" format="2">
  <advance width="311.0"/>
  <unicode hex="002E"/>
  <outline>
    <contour>
      <point x="171.4" y="-12.4" type="curve" smooth="yes"/>
      <point x="217.50909090908" y="-12.4"/>
      <point x="238.4" y="16.8"/>
      <point x="238.4" y="47.4" type="curve" smooth="yes"/>
      <point x="238.4" y="96.8"/>
      <point x="204.51891891894002" y="150.2"/>
      <point x="134.2" y="150.2" type="curve" smooth="yes"/>
      <point x="97.8" y="150.2"/>
      <point x="67.8" y="124.6"/>
      <point x="67.8" y="83.0" type="curve" smooth="yes"/>
      <point x="67.8" y="26.8"/>
      <point x="108.6" y="-12.4"/>
    </contour>
  </outline>
</glyph>
<glyph name="zero" format="2">
  <advance width="700.0"/>
  <unicode hex="0030"/>
  <outline>
    <contour>
      <point x="299.0" y="540.0" type="curve" smooth="yes"/>
      <point x="233.0" y="492.0"/>
      <point x="171.0" y="381.0"/>
      <point x="171.0" y="270.0" type="curve" smooth="yes"/>
      <point x="171.0" y="178.0"/>
      <point x="219.0" y="109.0"/>
      <point x="317.0" y="109.0" type="curve" smooth="yes"/>
      <point x="426.0" y="109.0"/>
      <point x="528.0" y="217.0"/>
      <point x="528.0" y="417.0" type="curve" smooth="yes"/>
      <point x="528.0" y="517.0"/>
      <point x="496.0" y="591.0"/>
      <point x="400.0" y="591.0" type="curve" smooth="yes"/>
      <point x="336.0" y="591.0"/>
      <point x="262.0" y="550.0"/>
      <point x="217.0" y="497.0" type="curve" smooth="yes"/>
      <point x="196.0" y="472.0"/>
      <point x="157.0" y="468.0"/>
      <point x="133.0" y="489.0" type="curve" smooth="yes"/>
      <point x="108.0" y="510.0"/>
      <point x="104.0" y="549.0"/>
      <point x="125.0" y="573.0" type="curve" smooth="yes"/>
      <point x="192.0" y="654.0"/>
      <point x="306.0" y="711.0"/>
      <point x="400.0" y="711.0" type="curve" smooth="yes"/>
      <point x="573.0" y="711.0"/>
      <point x="648.0" y="599.0"/>
      <point x="648.0" y="417.0" type="curve" smooth="yes"/>
      <point x="648.0" y="128.0"/>
      <point x="479.0" y="-11.0"/>
      <point x="317.0" y="-11.0" type="curve" smooth="yes"/>
      <point x="170.0" y="-11.0"/>
      <point x="51.0" y="74.0"/>
      <point x="51.0" y="270.0" type="curve" smooth="yes"/>
      <point x="51.0" y="421.0"/>
      <point x="137.0" y="572.0"/>
      <point x="229.0" y="638.0" type="curve" smooth="yes"/>
      <point x="255.0" y="657.0"/>
      <point x="294.0" y="650.0"/>
      <point x="313.0" y="624.0" type="curve" smooth="yes"/>
      <point x="332.0" y="598.0"/>
      <point x="325.0" y="559.0"/>
    </contour>
  </outline>
</glyph>
<glyph name="one" format="2">
  <advance width="700.0"/>
  <unicode hex="0031"/>
  <outline>
    <contour>
      <point x="149.0" y="101.0" type="curve" smooth="yes"/>
      <point x="244.4" y="101.0"/>
      <point x="417.67234042552" y="109.2"/>
      <point x="538.2" y="109.2" type="curve" smooth="yes"/>
      <point x="600.23636363638" y="109.2"/>
      <point x="641.2" y="86.6"/>
      <point x="641.4" y="47.8" type="curve" smooth="yes"/>
      <point x="641.6" y="20.4"/>
      <point x="619.81612903226" y="0.0"/>
      <point x="571.6" y="0.0" type="curve" smooth="yes"/>
      <point x="415.65257731959997" y="0.0"/>
      <point x="279.2" y="-9.6"/>
      <point x="191.6" y="-9.6" type="curve" smooth="yes"/>
      <point x="102.2" y="-9.6"/>
      <point x="72.6" y="21.3522123894"/>
      <point x="72.6" y="56.0" type="curve" smooth="yes"/>
      <point x="72.6" y="84.31428571428"/>
      <point x="95.2" y="101.0"/>
    </contour>
    <contour>
      <point x="130.0" y="611.6" type="curve" smooth="yes"/>
      <point x="207.8" y="614.8"/>
      <point x="287.0" y="640.8"/>
      <point x="358.4" y="689.0" type="curve" smooth="yes"/>
      <point x="376.8" y="702.4"/>
      <point x="395.2" y="710.6"/>
      <point x="415.8" y="710.6" type="curve" smooth="yes"/>
      <point x="459.6" y="710.6"/>
      <point x="489.26953182223997" y="673.97301323644"/>
      <point x="480.6" y="629.4" type="curve" smooth="yes"/>
      <point x="461.4" y="532.8"/>
      <point x="424.6" y="322.0"/>
      <point x="424.6" y="101.80000000000001" type="curve" smooth="yes"/>
      <point x="424.6" y="75.80000000000001"/>
      <point x="408.8" y="55.2"/>
      <point x="383.8" y="55.2" type="curve" smooth="yes"/>
      <point x="343.2" y="55.2"/>
      <point x="315.2" y="87.80000000000001"/>
      <point x="315.2" y="127.4" type="curve" smooth="yes"/>
      <point x="315.2" y="280.8"/>
      <point x="337.4" y="459.4"/>
      <point x="363.8" y="605.4" type="curve"/>
      <point x="389.2" y="585.8" type="line"/>
      <point x="318.597229113" y="536.85919386484"/>
      <point x="232.6" y="508.6"/>
      <point x="151.0" y="508.6" type="curve" smooth="yes"/>
      <point x="108.6" y="508.6"/>
      <point x="83.8" y="535.19175257732"/>
      <point x="83.8" y="569.2" type="curve" smooth="yes"/>
      <point x="83.8" y="591.97446808512"/>
      <point x="98.8" y="609.2"/>
    </contour>
  </outline>
</glyph>
<glyph name="two" format="2">
  <advance width="700.0"/>
  <unicode hex="0032"/>
  <outline>
    <contour>
      <point x="126.6" y="622.4" type="curve" smooth="yes"/>
      <point x="201.28863055868" y="676.90267155254"/>
      <point x="288.95918367346" y="713.0"/>
      <point x="378.0" y="713.0" type="curve" smooth="yes"/>
      <point x="529.6" y="713.0"/>
      <point x="588.0" y="629.82352941176"/>
      <point x="588.0" y="511.0" type="curve" smooth="yes"/>
      <point x="588.0" y="396.28643006264"/>
      <point x="519.2651667715" y="256.22054760864"/>
      <point x="212.8" y="68.4" type="curve"/>
      <point x="188.4" y="102.0" type="line"/>
      <point x="210.2" y="93.2"/>
      <point x="230.8" y="91.2"/>
      <point x="252.2" y="91.2" type="curve" smooth="yes"/>
      <point x="322.0" y="91.2"/>
      <point x="426.4" y="109.2"/>
      <point x="545.8" y="109.2" type="curve" smooth="yes"/>
      <point x="620.2" y="109.2"/>
      <point x="642.0" y="78.41886792452"/>
      <point x="642.0" y="45.2" type="curve" smooth="yes"/>
      <point x="642.0" y="18.729411764720002"/>
      <point x="621.96" y="0.0"/>
      <point x="581.0" y="0.0" type="curve" smooth="yes"/>
      <point x="373.69237084502" y="0.0"/>
      <point x="269.14801762116" y="-20.0"/>
      <point x="182.6" y="-20.0" type="curve" smooth="yes"/>
      <point x="118.8" y="-20.0"/>
      <point x="86.8" y="11.600000000000001"/>
      <point x="86.8" y="65.2" type="curve" smooth="yes"/>
      <point x="86.8" y="92.2"/>
      <point x="98.2" y="109.0"/>
      <point x="113.8" y="118.6" type="curve" smooth="yes"/>
      <point x="386.58978304366" y="291.24462246188"/>
      <point x="478.6" y="406.26698113208"/>
      <point x="478.6" y="511.0" type="curve" smooth="yes"/>
      <point x="478.6" y="568.56258992806"/>
      <point x="446.8" y="604.0"/>
      <point x="378.0" y="604.0" type="curve" smooth="yes"/>
      <point x="248.35614035088" y="604.0"/>
      <point x="186.52500000002" y="519.2"/>
      <point x="146.4" y="519.2" type="curve" smooth="yes"/>
      <point x="117.2" y="519.2"/>
      <point x="94.6" y="543.8"/>
      <point x="94.6" y="572.0" type="curve" smooth="yes"/>
      <point x="94.6" y="592.0"/>
      <point x="103.4" y="605.2"/>
    </contour>
  </outline>
</glyph>
<glyph name="three" format="2">
  <advance width="700.0"/>
  <unicode hex="0033"/>
  <outline>
    <contour>
      <point x="372.0" y="712.0" type="curve" smooth="yes"/>
      <point x="508.4" y="712.0"/>
      <point x="573.2" y="648.12941176472"/>
      <point x="573.2" y="550.0" type="curve" smooth="yes"/>
      <point x="573.2" y="475.4098360656"/>
      <point x="530.9150834841599" y="390.28733581164"/>
      <point x="360.0" y="361.4" type="curve"/>
      <point x="358.2" y="387.2" type="line"/>
      <point x="558.8007873834799" y="387.6000079134"/>
      <point x="632.0" y="320.8687888548"/>
      <point x="632.0" y="216.0" type="curve" smooth="yes"/>
      <point x="632.0" y="70.92173913044"/>
      <point x="491.0" y="-12.0"/>
      <point x="293.0" y="-12.0" type="curve" smooth="yes"/>
      <point x="146.68" y="-12.0"/>
      <point x="87.6" y="43.2"/>
      <point x="87.6" y="97.6" type="curve" smooth="yes"/>
      <point x="87.6" y="126.80689655172"/>
      <point x="101.11333333332" y="149.4"/>
      <point x="128.2" y="149.4" type="curve" smooth="yes"/>
      <point x="165.0" y="149.4"/>
      <point x="166.94436090224" y="97.4"/>
      <point x="274.4" y="97.4" type="curve" smooth="yes"/>
      <point x="414.2" y="97.4"/>
      <point x="522.6" y="144.40736196322"/>
      <point x="522.6" y="220.4" type="curve" smooth="yes"/>
      <point x="522.6" y="286.82857142858"/>
      <point x="446.60044015106" y="305.9999967636"/>
      <point x="298.2" y="306.6" type="curve" smooth="yes"/>
      <point x="257.2" y="306.6"/>
      <point x="235.0" y="338.8"/>
      <point x="235.0" y="371.0" type="curve" smooth="yes"/>
      <point x="235.0" y="390.4"/>
      <point x="245.2" y="406.0"/>
      <point x="269.8" y="411.4" type="curve" smooth="yes"/>
      <point x="379.56458384728" y="437.14391352968"/>
      <point x="460.6" y="474.79148936170003"/>
      <point x="460.6" y="546.0" type="curve" smooth="yes"/>
      <point x="460.6" y="596.91428571426"/>
      <point x="422.6" y="607.0"/>
      <point x="376.4" y="607.0" type="curve" smooth="yes"/>
      <point x="207.4" y="607.0"/>
      <point x="177.77142857144" y="533.8"/>
      <point x="132.0" y="533.8" type="curve" smooth="yes"/>
      <point x="106.4" y="533.8"/>
      <point x="80.4" y="554.4"/>
      <point x="80.4" y="582.4" type="curve" smooth="yes"/>
      <point x="80.4" y="630.69677419356"/>
      <point x="217.79826645266" y="712.0"/>
    </contour>
  </outline>
</glyph>
<glyph name="four" format="2">
  <advance width="700.0"/>
  <unicode hex="0034"/>
  <outline>
    <contour>
      <point x="362.0" y="37.0" type="curve" smooth="yes"/>
      <point x="321.0" y="256.0"/>
      <point x="411.0" y="434.0"/>
      <point x="397.0" y="606.0" type="curve" smooth="yes"/>
      <point x="394.0" y="645.0"/>
      <point x="469.0" y="603.0"/>
      <point x="431.0" y="587.0" type="curve" smooth="yes"/>
      <point x="328.0" y="544.0"/>
      <point x="223.0" y="421.0"/>
      <point x="144.0" y="265.0" type="curve" smooth="yes"/>
      <point x="114.0" y="205.0"/>
      <point x="77.0" y="321.0"/>
      <point x="117.0" y="304.0" type="curve" smooth="yes"/>
      <point x="151.0" y="290.0"/>
      <point x="160.0" y="290.0"/>
      <point x="183.0" y="290.0" type="curve"/>
      <point x="315.0" y="290.0"/>
      <point x="424.0" y="352.0"/>
      <point x="613.0" y="352.0" type="curve" smooth="yes"/>
      <point x="645.0" y="352.0"/>
      <point x="673.0" y="324.0"/>
      <point x="673.0" y="292.0" type="curve" smooth="yes"/>
      <point x="673.0" y="260.0"/>
      <point x="645.0" y="232.0"/>
      <point x="613.0" y="232.0" type="curve" smooth="yes"/>
      <point x="424.0" y="232.0"/>
      <point x="315.0" y="170.0"/>
      <point x="165.0" y="170.0" type="curve" smooth="yes"/>
      <point x="86.0" y="170.0"/>
      <point x="30.0" y="221.0"/>
      <point x="30.0" y="272.0" type="curve" smooth="yes"/>
      <point x="30.0" y="299.0"/>
      <point x="33.0" y="311.0"/>
      <point x="48.0" y="341.0" type="curve" smooth="yes"/>
      <point x="165.0" y="567.0"/>
      <point x="362.0" y="718.0"/>
      <point x="450.0" y="718.0" type="curve" smooth="yes"/>
      <point x="477.0" y="718.0"/>
      <point x="503.0" y="699.0"/>
      <point x="509.0" y="671.0" type="curve" smooth="yes"/>
      <point x="555.0" y="452.0"/>
      <point x="441.0" y="253.0"/>
      <point x="480.0" y="60.0" type="curve" smooth="yes"/>
      <point x="489.0" y="15.0"/>
      <point x="463.0" y="-11.0"/>
      <point x="422.0" y="-11.0" type="curve" smooth="yes"/>
      <point x="393.0" y="-11.0"/>
      <point x="367.0" y="9.0"/>
    </contour>
  </outline>
</glyph>
<glyph name="five" format="2">
  <advance width="700.0"/>
  <unicode hex="0035"/>
  <outline>
    <contour>
      <point x="575.0" y="607.8" type="curve" smooth="yes"/>
      <point x="425.42294264338" y="607.8"/>
      <point x="356.16735267264" y="588.93462537422"/>
      <point x="180.0" y="591.8" type="curve"/>
      <point x="247.2" y="630.8" type="line"/>
      <point x="227.8" y="592.8"/>
      <point x="209.2" y="538.2"/>
      <point x="209.2" y="500.2" type="curve" smooth="yes"/>
      <point x="209.2" y="472.2"/>
      <point x="215.6748570072" y="465.76673862024"/>
      <point x="385.0" y="433.6" type="curve" smooth="yes"/>
      <point x="577.29826968134" y="396.53148651494"/>
      <point x="621.0" y="340.1386138614"/>
      <point x="621.0" y="248.6" type="curve" smooth="yes"/>
      <point x="621.0" y="100.84347826088"/>
      <point x="475.0" y="-12.0"/>
      <point x="252.0" y="-12.0" type="curve" smooth="yes"/>
      <point x="148.18285714286" y="-12.0"/>
      <point x="100.6" y="30.4"/>
      <point x="100.6" y="94.0" type="curve" smooth="yes"/>
      <point x="100.6" y="123.8"/>
      <point x="114.8" y="147.0"/>
      <point x="143.6" y="147.0" type="curve" smooth="yes"/>
      <point x="176.98494623656" y="147.0"/>
      <point x="174.0365591398" y="95.0"/>
      <point x="240.6" y="95.0" type="curve" smooth="yes"/>
      <point x="378.71228070176" y="95.0"/>
      <point x="507.2" y="150.31739130436"/>
      <point x="507.2" y="245.4" type="curve" smooth="yes"/>
      <point x="507.2" y="294.8"/>
      <point x="454.5338379478" y="317.85601710538"/>
      <point x="357.0" y="337.2" type="curve" smooth="yes"/>
      <point x="124.6" y="382.0"/>
      <point x="98.2" y="405.2"/>
      <point x="98.2" y="492.6" type="curve" smooth="yes"/>
      <point x="98.2" y="529.6"/>
      <point x="107.2" y="579.0"/>
      <point x="127.4" y="643.4" type="curve" smooth="yes"/>
      <point x="139.6" y="683.0"/>
      <point x="159.0" y="700.0"/>
      <point x="189.6" y="700.0" type="curve" smooth="yes"/>
      <point x="351.36727287153997" y="698.36113491328"/>
      <point x="411.1788472603" y="716.0"/>
      <point x="532.6" y="716.0" type="curve" smooth="yes"/>
      <point x="595.39545454544" y="716.0"/>
      <point x="628.00153174072" y="682.4301242344"/>
      <point x="626.2" y="646.2" type="curve" smooth="yes"/>
      <point x="625.21289365052" y="622.87706506992"/>
      <point x="605.0" y="607.8"/>
    </contour>
  </outline>
</glyph>
<glyph name="six" format="2">
  <advance width="700.0"/>
  <unicode hex="0036"/>
  <outline>
    <contour>
      <point x="443.4" y="599.4" type="curve" smooth="yes"/>
      <point x="280.34350748592" y="481.20429082654"/>
      <point x="173.2" y="363.19090909092"/>
      <point x="173.2" y="241.0" type="curve" smooth="yes"/>
      <point x="173.2" y="132.68101265824"/>
      <point x="249.38265513436" y="97.0"/>
      <point x="355.0" y="97.0" type="curve" smooth="yes"/>
      <point x="449.21339160554" y="97.0"/>
      <point x="528.2" y="132.39503105592001"/>
      <point x="528.2" y="210.0" type="curve" smooth="yes"/>
      <point x="528.2" y="255.49696969694"/>
      <point x="492.66607587926" y="304.2"/>
      <point x="387.2" y="304.2" type="curve" smooth="yes"/>
      <point x="265.73159252094" y="304.2"/>
      <point x="243.99148936172" y="275.4"/>
      <point x="200.8" y="275.4" type="curve" smooth="yes"/>
      <point x="173.8" y="275.4"/>
      <point x="165.2" y="288.2"/>
      <point x="165.2" y="309.4" type="curve" smooth="yes"/>
      <point x="165.2" y="346.98425196851997"/>
      <point x="254.42926829266" y="402.8"/>
      <point x="407.6" y="402.8" type="curve" smooth="yes"/>
      <point x="557.21809954752" y="402.8"/>
      <point x="639.0" y="314.2446511628"/>
      <point x="639.0" y="201.0" type="curve" smooth="yes"/>
      <point x="639.0" y="87.57209302326"/>
      <point x="536.57744765466" y="-10.0"/>
      <point x="353.4" y="-10.0" type="curve" smooth="yes"/>
      <point x="150.2014610576" y="-10.0"/>
      <point x="61.0" y="85.6"/>
      <point x="61.0" y="239.0" type="curve" smooth="yes"/>
      <point x="61.0" y="384.99908883828"/>
      <point x="173.77178768312" y="537.83511361398"/>
      <point x="367.4" y="678.4" type="curve" smooth="yes"/>
      <point x="402.42513719144" y="703.3102352477999"/>
      <point x="413.93623188404" y="710.6"/>
      <point x="433.2" y="710.6" type="curve" smooth="yes"/>
      <point x="461.29787234044" y="710.6"/>
      <point x="482.4" y="684.80202020204"/>
      <point x="482.4" y="656.4" type="curve" smooth="yes"/>
      <point x="482.4" y="634.6"/>
      <point x="476.0" y="622.2"/>
    </contour>
  </outline>
</glyph>
<glyph name="seven" format="2">
  <advance width="700.0"/>
  <unicode hex="0037"/>
  <outline>
    <contour>
      <point x="202.0" y="354.0" type="curve" smooth="yes"/>
      <point x="305.84067796612" y="354.0"/>
      <point x="397.6881355932" y="382.0"/>
      <point x="552.0" y="382.0" type="curve" smooth="yes"/>
      <point x="608.35" y="382.0"/>
      <point x="642.0" y="352.42352941176"/>
      <point x="642.0" y="313.0" type="curve" smooth="yes"/>
      <point x="642.0" y="291.4"/>
      <point x="625.4" y="277.0"/>
      <point x="595.0" y="277.0" type="curve" smooth="yes"/>
      <point x="397.2221606648" y="277.0"/>
      <point x="326.65982905982" y="249.0"/>
      <point x="240.0" y="249.0" type="curve" smooth="yes"/>
      <point x="196.2" y="249.0"/>
      <point x="163.8" y="281.0"/>
      <point x="163.8" y="312.4" type="curve" smooth="yes"/>
      <point x="163.8" y="338.4"/>
      <point x="178.6" y="354.0"/>
    </contour>
    <contour>
      <point x="98.8" y="646.2" type="curve" smooth="yes"/>
      <point x="183.4" y="682.6"/>
      <point x="286.07994929028" y="710.0"/>
      <point x="376.0" y="710.0" type="curve" smooth="yes"/>
      <point x="535.60784313724" y="710.0"/>
      <point x="596.0" y="644.6"/>
      <point x="596.0" y="549.0" type="curve" smooth="yes"/>
      <point x="596.0" y="401.0"/>
      <point x="404.0" y="235.0"/>
      <point x="404.0" y="57.4" type="curve" smooth="yes"/>
      <point x="404.0" y="6.0"/>
      <point x="392.2" y="-9.0"/>
      <point x="361.0" y="-9.0" type="curve" smooth="yes"/>
      <point x="324.6" y="-9.0"/>
      <point x="294.6" y="14.0"/>
      <point x="294.6" y="62.6" type="curve" smooth="yes"/>
      <point x="294.6" y="244.2"/>
      <point x="485.0" y="445.0"/>
      <point x="485.0" y="539.6" type="curve" smooth="yes"/>
      <point x="485.0" y="584.2"/>
      <point x="463.0" y="604.2"/>
      <point x="383.0" y="604.2" type="curve" smooth="yes"/>
      <point x="234.8" y="604.2"/>
      <point x="171.1237410072" y="545.6"/>
      <point x="127.0" y="545.6" type="curve" smooth="yes"/>
      <point x="98.39090909092" y="545.6"/>
      <point x="70.6" y="574.0"/>
      <point x="70.6" y="604.4" type="curve" smooth="yes"/>
      <point x="70.6" y="621.6"/>
      <point x="80.6" y="638.6"/>
    </contour>
  </outline>
</glyph>
<glyph name="eight" format="2">
  <advance width="700.0"/>
  <unicode hex="0038"/>
  <outline>
    <contour>
      <point x="426.0" y="605.2" type="curve" smooth="yes"/>
      <point x="247.13052479526002" y="609.99219151154"/>
      <point x="178.4" y="584.2"/>
      <point x="178.4" y="535.8" type="curve" smooth="yes"/>
      <point x="178.4" y="497.81363636364"/>
      <point x="227.8" y="469.2"/>
      <point x="376.0" y="416.8" type="curve" smooth="yes"/>
      <point x="598.28038869864" y="338.3682193194"/>
      <point x="621.0" y="283.2"/>
      <point x="621.0" y="202.8" type="curve" smooth="yes"/>
      <point x="621.0" y="91.8"/>
      <point x="530.3176470588401" y="-12.0"/>
      <point x="292.8" y="-12.0" type="curve" smooth="yes"/>
      <point x="143.12307692308" y="-12.0"/>
      <point x="88.599972404" y="60.598661594"/>
      <point x="89.4" y="143.8" type="curve" smooth="yes"/>
      <point x="90.770532443" y="204.09661641244"/>
      <point x="114.1156160872" y="274.94084250992"/>
      <point x="322.8" y="402.2" type="curve" smooth="yes"/>
      <point x="443.65566690168" y="473.97173696404"/>
      <point x="488.9474051038" y="522.99440176944"/>
      <point x="509.0" y="594.4" type="curve" smooth="yes"/>
      <point x="518.4" y="626.2"/>
      <point x="528.46666666668" y="642.6"/>
      <point x="552.8" y="642.6" type="curve" smooth="yes"/>
      <point x="583.7157894736799" y="642.6"/>
      <point x="609.8" y="614.8"/>
      <point x="609.8" y="579.4" type="curve" smooth="yes"/>
      <point x="609.8" y="513.0"/>
      <point x="557.49524744448" y="423.75145224314"/>
      <point x="413.8" y="336.0" type="curve" smooth="yes"/>
      <point x="230.8" y="226.6"/>
      <point x="198.6" y="184.40855614972"/>
      <point x="198.6" y="135.6" type="curve" smooth="yes"/>
      <point x="198.6" y="109.70588235296"/>
      <point x="203.06327541968" y="79.15099911644"/>
      <point x="222.2" y="45.4" type="curve"/>
      <point x="160.8" y="124.0" type="line"/>
      <point x="204.65899044256" y="101.14557275552"/>
      <point x="246.6553846154" y="95.4"/>
      <point x="292.0" y="95.4" type="curve" smooth="yes"/>
      <point x="410.7741935484" y="95.4"/>
      <point x="507.6" y="128.9612903226"/>
      <point x="507.6" y="205.2" type="curve" smooth="yes"/>
      <point x="507.6" y="250.6"/>
      <point x="481.2" y="283.0"/>
      <point x="339.4" y="328.0" type="curve" smooth="yes"/>
      <point x="106.4" y="401.6"/>
      <point x="68.0" y="455.6"/>
      <point x="69.0" y="537.0" type="curve" smooth="yes"/>
      <point x="70.9999939536" y="646.79963721664"/>
      <point x="165.57193709248" y="714.98272628094"/>
      <point x="377.0" y="711.0" type="curve" smooth="yes"/>
      <point x="440.6" y="709.8"/>
      <point x="472.2" y="676.4"/>
      <point x="471.4" y="643.4" type="curve" smooth="yes"/>
      <point x="471.0" y="622.0"/>
      <point x="450.0" y="604.2"/>
    </contour>
  </outline>
</glyph>
<glyph name="nine" format="2">
  <advance width="700.0"/>
  <unicode hex="0039"/>
  <outline>
    <contour>
      <point x="482.4" y="563.4" type="curve" smooth="yes"/>
      <point x="506.4" y="563.4"/>
      <point x="517.4" y="588.6"/>
      <point x="517.4" y="613.4" type="curve" smooth="yes"/>
      <point x="517.4" y="673.0"/>
      <point x="462.6813559322" y="710.0"/>
      <point x="369.0" y="710.0" type="curve" smooth="yes"/>
      <point x="174.8" y="710.0"/>
      <point x="68.0" y="577.14503816792"/>
      <point x="68.0" y="451.6" type="curve" smooth="yes"/>
      <point x="68.0" y="336.9961904762"/>
      <point x="133.06488888888" y="262.8"/>
      <point x="268.6" y="262.8" type="curve" smooth="yes"/>
      <point x="391.18217821784003" y="262.8"/>
      <point x="493.22613453236" y="322.95780780436"/>
      <point x="546.2" y="439.2" type="curve"/>
      <point x="489.8" y="419.8" type="line"/>
      <point x="489.8" y="264.64805653712"/>
      <point x="485.09481323588" y="142.16475131956"/>
      <point x="498.6" y="56.0" type="curve" smooth="yes"/>
      <point x="505.40170315456" y="17.057870464799997"/>
      <point x="532.4" y="-9.0"/>
      <point x="572.2" y="-9.0" type="curve" smooth="yes"/>
      <point x="599.2" y="-9.0"/>
      <point x="614.0" y="6.800000000000001"/>
      <point x="614.0" y="39.400000000000006" type="curve" smooth="yes"/>
      <point x="614.0" y="84.6"/>
      <point x="600.0" y="132.83585657372"/>
      <point x="600.0" y="281.2" type="curve" smooth="yes"/>
      <point x="600.0" y="326.0"/>
      <point x="598.6" y="406.6"/>
      <point x="600.4" y="507.4" type="curve"/>
      <point x="622.16558456736" y="618.80799811252"/>
      <point x="594.6" y="660.6"/>
      <point x="532.4" y="660.6" type="curve" smooth="yes"/>
      <point x="508.2" y="660.6"/>
      <point x="492.0" y="640.2"/>
      <point x="492.0" y="602.4" type="curve" smooth="yes"/>
      <point x="492.0" y="432.85989304812"/>
      <point x="388.0" y="369.0"/>
      <point x="269.0" y="369.0" type="curve" smooth="yes"/>
      <point x="210.0" y="369.0"/>
      <point x="177.4" y="399.15555555556"/>
      <point x="177.4" y="454.0" type="curve" smooth="yes"/>
      <point x="177.4" y="532.85454545456"/>
      <point x="248.0" y="602.6"/>
      <point x="369.0" y="602.6" type="curve" smooth="yes"/>
      <point x="450.4" y="602.6"/>
      <point x="450.4" y="563.4"/>
    </contour>
  </outline>
</glyph>
<glyph name="A" format="2">
  <advance width="723.0"/>
  <unicode hex="0041"/>
  <outline>
    <contour>
      <point x="629.0" y="-9.66666666668" type="curve" smooth="yes"/>
      <point x="648.33333333332" y="-9.66666666668"/>
      <point x="661.33333333332" y="3.0"/>
      <point x="661.33333333332" y="25.0" type="curve" smooth="yes"/>
      <point x="661.33333333332" y="72.33333333332"/>
      <point x="597.51776601612" y="181.65868457342"/>
      <point x="574.33333333332" y="397.0" type="curve" smooth="yes"/>
      <point x="551.33333333332" y="611.33333333332"/>
      <point x="527.0" y="715.33333333332"/>
      <point x="406.33333333332" y="715.33333333332" type="curve" smooth="yes"/>
      <point x="325.50915750918" y="715.33333333332"/>
      <point x="259.32765603947996" y="650.98817230446"/>
      <point x="200.66666666668" y="531.33333333332" type="curve"/>
      <point x="245.33333333332" y="553.0" type="line"/>
      <point x="225.47048785824" y="571.12680546432"/>
      <point x="201.82113821133998" y="581.66666666668"/>
      <point x="177.0" y="581.66666666668" type="curve" smooth="yes"/>
      <point x="154.33333333332" y="581.66666666668"/>
      <point x="143.33333333332" y="567.0"/>
      <point x="143.33333333332" y="544.66666666668" type="curve" smooth="yes"/>
      <point x="143.33333333332" y="390.8888888889"/>
      <point x="77.0" y="275.0"/>
      <point x="77.0" y="91.33333333332001" type="curve" smooth="yes"/>
      <point x="77.0" y="23.0"/>
      <point x="106.8037863421" y="-8.0"/>
      <point x="138.66666666668" y="-8.0" type="curve" smooth="yes"/>
      <point x="162.33333333332" y="-8.66666666668"/>
      <point x="174.66666666668" y="12.33333333332"/>
      <point x="177.0" y="30.33333333332" type="curve" smooth="yes"/>
      <point x="231.0014625324" y="383.6744619492"/>
      <point x="333.8125" y="614.33333333332"/>
      <point x="405.66666666668" y="614.33333333332" type="curve" smooth="yes"/>
      <point x="439.8039215686" y="614.33333333332"/>
      <point x="452.57402007162" y="562.41797613036"/>
      <point x="471.66666666668" y="386.66666666668" type="curve" smooth="yes"/>
      <point x="483.5526886122" y="276.59933419931997"/>
      <point x="503.2620865476" y="139.76548781832"/>
      <point x="541.0" y="65.66666666668" type="curve" smooth="yes"/>
      <point x="571.66666666668" y="4.0"/>
      <point x="595.2105263158" y="-9.66666666668"/>
    </contour>
    <contour>
      <point x="84.66666666668" y="189.33333333332" type="curve" smooth="yes"/>
      <point x="188.0" y="189.33333333332"/>
      <point x="294.66666666668" y="268.66666666668"/>
      <point x="605.66666666668" y="268.66666666668" type="curve" smooth="yes"/>
      <point x="654.0" y="268.66666666668"/>
      <point x="695.33333333332" y="298.66666666668"/>
      <point x="695.33333333332" y="336.33333333332" type="curve" smooth="yes"/>
      <point x="695.33333333332" y="363.33333333332"/>
      <point x="686.33333333332" y="370.66666666668"/>
      <point x="608.33333333332" y="370.66666666668" type="curve" smooth="yes"/>
      <point x="396.33333333332" y="370.66666666668"/>
      <point x="209.0" y="328.33333333332"/>
      <point x="58.66666666668" y="269.33333333332" type="curve" smooth="yes"/>
      <point x="36.0" y="260.33333333332"/>
      <point x="28.0" y="250.0"/>
      <point x="28.0" y="233.33333333332" type="curve" smooth="yes"/>
      <point x="28.0" y="210.53968253968"/>
      <point x="56.33333333332" y="189.33333333332"/>
    </contour>
  </outline>
</glyph>
<glyph name="B" format="2">
  <advance width="600.6"/>
  <unicode hex="0042"/>
  <outline>
    <contour>
      <point x="179.4" y="336.2" type="curve" smooth="yes"/>
      <point x="181.8" y="421.4"/>
      <point x="185.0" y="471.6"/>
      <point x="201.0" y="572.2" type="curve" smooth="yes"/>
      <point x="208.4" y="616.0"/>
      <point x="181.2" y="654.8"/>
      <point x="149.2" y="654.8" type="curve" smooth="yes"/>
      <point x="127.0" y="654.8"/>
      <point x="110.8" y="644.8"/>
      <point x="104.8" y="618.6" type="curve" smooth="yes"/>
      <point x="79.0" y="495.4"/>
      <point x="70.6" y="438.0"/>
      <point x="70.6" y="331.0" type="curve" smooth="yes"/>
      <point x="70.6" y="151.4"/>
      <point x="137.2" y="-10.0"/>
      <point x="248.6" y="-10.0" type="curve" smooth="yes"/>
      <point x="369.30069930068" y="-10.0"/>
      <point x="530.6" y="77.6"/>
      <point x="530.6" y="204.6" type="curve" smooth="yes"/>
      <point x="530.6" y="269.8"/>
      <point x="477.2" y="343.4"/>
      <point x="286.8" y="363.0" type="curve"/>
      <point x="291.0" y="327.8" type="line"/>
      <point x="496.2" y="386.0"/>
      <point x="556.6" y="464.2"/>
      <point x="556.6" y="525.0" type="curve" smooth="yes"/>
      <point x="556.6" y="660.8"/>
      <point x="387.92661064424" y="712.0"/>
      <point x="175.4" y="712.0" type="curve" smooth="yes"/>
      <point x="81.64855491328" y="712.0"/>
      <point x="40.2" y="684.8"/>
      <point x="40.2" y="637.6" type="curve" smooth="yes"/>
      <point x="40.2" y="613.6"/>
      <point x="56.8" y="596.0"/>
      <point x="83.2" y="596.0" type="curve" smooth="yes"/>
      <point x="103.8" y="596.0"/>
      <point x="154.0" y="597.6"/>
      <point x="201.2" y="597.6" type="curve" smooth="yes"/>
      <point x="350.87540983608" y="597.6"/>
      <point x="442.6" y="568.8"/>
      <point x="442.6" y="516.0" type="curve" smooth="yes"/>
      <point x="442.6" y="469.2"/>
      <point x="277.38050304" y="406.85157229716003"/>
      <point x="177.0" y="384.6" type="curve" smooth="yes"/>
      <point x="130.2" y="374.4"/>
      <point x="111.6" y="359.0"/>
      <point x="111.6" y="336.0" type="curve" smooth="yes"/>
      <point x="111.6" y="297.8"/>
      <point x="137.6" y="279.6"/>
      <point x="174.6" y="280.6" type="curve" smooth="yes"/>
      <point x="315.0287826992" y="283.12625076044003"/>
      <point x="420.6" y="239.2"/>
      <point x="420.6" y="199.2" type="curve" smooth="yes"/>
      <point x="420.6" y="159.4"/>
      <point x="322.59252336448003" y="99.80000000000001"/>
      <point x="257.0" y="99.80000000000001" type="curve" smooth="yes"/>
      <point x="220.4" y="99.80000000000001"/>
      <point x="175.2" y="195.6"/>
    </contour>
  </outline>
</glyph>
<glyph name="C" format="2">
  <advance width="652.6"/>
  <unicode hex="0043"/>
  <outline>
    <contour>
      <point x="345.4" y="-10.0" type="curve" smooth="yes"/>
      <point x="519.90076335878" y="-10.0"/>
      <point x="603.0" y="77.8227272727"/>
      <point x="603.0" y="146.8" type="curve" smooth="yes"/>
      <point x="603.0" y="173.6"/>
      <point x="592.0" y="195.0"/>
      <point x="573.4" y="195.0" type="curve" smooth="yes"/>
      <point x="538.6" y="195.0"/>
      <point x="500.8814814815" y="95.80000000000001"/>
      <point x="349.2" y="95.80000000000001" type="curve" smooth="yes"/>
      <point x="237.10153846152" y="95.80000000000001"/>
      <point x="165.6" y="162.0"/>
      <point x="165.6" y="282.4" type="curve" smooth="yes"/>
      <point x="165.6" y="440.2"/>
      <point x="274.73576642337997" y="597.2"/>
      <point x="427.8" y="597.2" type="curve" smooth="yes"/>
      <point x="474.8" y="597.2"/>
      <point x="481.6" y="577.6"/>
      <point x="481.6" y="554.0" type="curve" smooth="yes"/>
      <point x="481.6" y="526.8"/>
      <point x="482.2" y="504.0"/>
      <point x="509.4" y="504.0" type="curve" smooth="yes"/>
      <point x="553.4" y="504.0"/>
      <point x="579.6" y="552.4"/>
      <point x="579.6" y="600.6" type="curve" smooth="yes"/>
      <point x="579.6" y="667.4"/>
      <point x="542.2" y="711.0"/>
      <point x="445.4" y="711.0" type="curve" smooth="yes"/>
      <point x="227.6" y="711.0"/>
      <point x="55.4" y="506.0"/>
      <point x="55.4" y="289.0" type="curve" smooth="yes"/>
      <point x="55.4" y="118.6"/>
      <point x="148.0" y="-10.0"/>
    </contour>
  </outline>
</glyph>
<glyph name="D" format="2">
  <advance width="655.0"/>
  <unicode hex="0044"/>
  <outline>
    <contour>
      <point x="197.0" y="-10.0" type="curve" smooth="yes"/>
      <point x="388.0" y="-10.0"/>
      <point x="615.0" y="208.0"/>
      <point x="615.0" y="460.0" type="curve" smooth="yes"/>
      <point x="615.0" y="610.0"/>
      <point x="520.0" y="709.0"/>
      <point x="355.0" y="709.0" type="curve" smooth="yes"/>
      <point x="230.0" y="709.0"/>
      <point x="77.0" y="663.0"/>
      <point x="33.0" y="632.0" type="curve" smooth="yes"/>
      <point x="18.0" y="621.0"/>
      <point x="8.0" y="603.0"/>
      <point x="8.0" y="583.0" type="curve" smooth="yes"/>
      <point x="8.0" y="553.2448979592"/>
      <point x="47.0" y="529.0"/>
      <point x="96.0" y="529.0" type="curve" smooth="yes"/>
      <point x="158.1245551601" y="529.0"/>
      <point x="214.0" y="588.0"/>
      <point x="349.0" y="588.0" type="curve" smooth="yes"/>
      <point x="459.6578947368" y="588.0"/>
      <point x="494.0" y="555.0"/>
      <point x="494.0" y="455.0" type="curve" smooth="yes"/>
      <point x="494.0" y="256.0"/>
      <point x="338.0" y="134.0"/>
      <point x="146.0" y="96.0" type="curve"/>
      <point x="196.0" y="83.0" type="line"/>
      <point x="193.0" y="282.0"/>
      <point x="214.0" y="336.0"/>
      <point x="214.0" y="551.0" type="curve" smooth="yes"/>
      <point x="214.0" y="584.0"/>
      <point x="189.0" y="611.0"/>
      <point x="158.0" y="611.0" type="curve" smooth="yes"/>
      <point x="105.0" y="611.0"/>
      <point x="100.0" y="594.0"/>
      <point x="97.0" y="555.0" type="curve" smooth="yes"/>
      <point x="81.0" y="369.0"/>
      <point x="76.0" y="244.0"/>
      <point x="76.0" y="134.0" type="curve" smooth="yes"/>
      <point x="76.0" y="63.0"/>
      <point x="127.0" y="-10.0"/>
    </contour>
  </outline>
</glyph>
<glyph name="E" format="2">
  <advance width="679.4"/>
  <unicode hex="0045"/>
  <outline>
    <contour>
      <point x="127.8" y="550.6" type="curve" smooth="yes"/>
      <point x="92.6" y="474.2"/>
      <point x="68.4" y="377.0"/>
      <point x="68.4" y="293.0" type="curve" smooth="yes"/>
      <point x="68.4" y="123.4"/>
      <point x="170.2" y="-7.0"/>
      <point x="361.4" y="-7.0" type="curve" smooth="yes"/>
      <point x="548.4" y="-7.0"/>
      <point x="638.8" y="45.6"/>
      <point x="638.8" y="104.2" type="curve" smooth="yes"/>
      <point x="638.8" y="129.0"/>
      <point x="630.0" y="145.8"/>
      <point x="599.2" y="145.8" type="curve" smooth="yes"/>
      <point x="568.6" y="145.8"/>
      <point x="512.2" y="102.0"/>
      <point x="359.0" y="102.0" type="curve" smooth="yes"/>
      <point x="249.6" y="102.0"/>
      <point x="179.0" y="180.6"/>
      <point x="179.6" y="293.4" type="curve" smooth="yes"/>
      <point x="180.2" y="401.4"/>
      <point x="216.2" y="507.2"/>
      <point x="254.0" y="578.0" type="curve" smooth="yes"/>
      <point x="267.8" y="614.2"/>
      <point x="244.2" y="630.0"/>
      <point x="218.6" y="630.0" type="curve" smooth="yes"/>
      <point x="179.0" y="630.0"/>
      <point x="148.4" y="596.2"/>
    </contour>
    <contour>
      <point x="173.8" y="262.6" type="curve" smooth="yes"/>
      <point x="242.8" y="278.6"/>
      <point x="351.8" y="294.0"/>
      <point x="460.6" y="300.8" type="curve" smooth="yes"/>
      <point x="505.8" y="303.6"/>
      <point x="543.2" y="322.8"/>
      <point x="543.2" y="367.2" type="curve" smooth="yes"/>
      <point x="543.2" y="398.4"/>
      <point x="530.8" y="409.2"/>
      <point x="481.2" y="409.2" type="curve" smooth="yes"/>
      <point x="388.0" y="406.6"/>
      <point x="270.0" y="391.4"/>
      <point x="182.2" y="375.2" type="curve" smooth="yes"/>
      <point x="141.6" y="367.4"/>
      <point x="116.0" y="343.6"/>
      <point x="116.0" y="316.0" type="curve" smooth="yes"/>
      <point x="116.0" y="283.4"/>
      <point x="129.2" y="252.6"/>
    </contour>
    <contour>
      <point x="149.2" y="570.4" type="curve" smooth="yes"/>
      <point x="221.2" y="570.4"/>
      <point x="343.2" y="603.8"/>
      <point x="589.4" y="603.8" type="curve" smooth="yes"/>
      <point x="621.6" y="603.8"/>
      <point x="632.8" y="623.2"/>
      <point x="632.8" y="648.6" type="curve" smooth="yes"/>
      <point x="632.8" y="682.6"/>
      <point x="600.4" y="709.6"/>
      <point x="544.6" y="709.6" type="curve" smooth="yes"/>
      <point x="433.4" y="709.6"/>
      <point x="245.2" y="698.6"/>
      <point x="104.8" y="666.4" type="curve" smooth="yes"/>
      <point x="79.8" y="659.6"/>
      <point x="72.2" y="642.4"/>
      <point x="72.2" y="625.8" type="curve" smooth="yes"/>
      <point x="72.2" y="594.6"/>
      <point x="98.6" y="570.4"/>
    </contour>
  </outline>
</glyph>
<glyph name="F" format="2">
  <advance width="571.0"/>
  <unicode hex="0046"/>
  <outline>
    <contour>
      <point x="192.66666666668" y="270.0" type="curve" smooth="yes"/>
      <point x="189.66661834392" y="363.00149800508"/>
      <point x="212.2" y="472.0"/>
      <point x="223.2" y="567.6" type="curve" smooth="yes"/>
      <point x="226.0" y="596.8"/>
      <point x="219.0" y="627.2"/>
      <point x="193.0" y="627.33333333332" type="curve" smooth="yes"/>
      <point x="148.6" y="627.2"/>
      <point x="126.8" y="595.6"/>
      <point x="116.6" y="540.8" type="curve" smooth="yes"/>
      <point x="100.6" y="459.8"/>
      <point x="88.66666666668" y="376.0"/>
      <point x="88.66666666668" y="294.0" type="curve" smooth="yes"/>
      <point x="88.66666666668" y="175.0"/>
      <point x="106.0" y="107.66666666668"/>
      <point x="134.33333333332" y="58.33333333332" type="curve" smooth="yes"/>
      <point x="164.0" y="6.0"/>
      <point x="192.66666666668" y="-10.0"/>
      <point x="222.66666666668" y="-10.0" type="curve" smooth="yes"/>
      <point x="248.66666666668" y="-10.0"/>
      <point x="259.33333333332" y="4.0"/>
      <point x="259.33333333332" y="26.66666666668" type="curve" smooth="yes"/>
      <point x="259.33333333332" y="64.33333333332"/>
      <point x="197.749604272" y="101.24647150338001"/>
    </contour>
    <contour>
      <point x="485.66666666668" y="609.33333333332" type="curve" smooth="yes"/>
      <point x="518.66666666668" y="609.33333333332"/>
      <point x="529.66666666668" y="620.0"/>
      <point x="529.66666666668" y="644.33333333332" type="curve" smooth="yes"/>
      <point x="529.66666666668" y="683.66666666668"/>
      <point x="493.33333333332" y="709.66666666668"/>
      <point x="442.0" y="711.0" type="curve" smooth="yes"/>
      <point x="323.0" y="713.0"/>
      <point x="162.33333333332" y="689.0"/>
      <point x="65.33333333332" y="667.0" type="curve" smooth="yes"/>
      <point x="39.0" y="660.66666666668"/>
      <point x="30.0" y="644.0"/>
      <point x="30.0" y="626.0" type="curve" smooth="yes"/>
      <point x="30.0" y="599.6"/>
      <point x="54.4" y="571.8"/>
      <point x="104.2" y="571.8" type="curve" smooth="yes"/>
      <point x="148.2" y="571.8"/>
      <point x="273.412371134" y="609.33333333332"/>
    </contour>
    <contour>
      <point x="192.0" y="262.33333333332" type="curve" smooth="yes"/>
      <point x="244.0" y="273.66666666668"/>
      <point x="309.6992671988" y="281.402058981"/>
      <point x="399.33333333332" y="287.33333333332" type="curve" smooth="yes"/>
      <point x="458.33333333332" y="291.66666666668"/>
      <point x="497.0" y="310.56118143460003"/>
      <point x="497.0" y="355.0" type="curve"/>
      <point x="497.0" y="381.0"/>
      <point x="484.32203389832" y="388.33333333332"/>
      <point x="437.0" y="388.33333333332" type="curve" smooth="yes"/>
      <point x="350.66666666668" y="386.0"/>
      <point x="251.3778680946" y="376.65927646248"/>
      <point x="175.33333333332" y="363.33333333332" type="curve" smooth="yes"/>
      <point x="134.51273892928" y="355.96921445252"/>
      <point x="113.66666666668" y="331.66666666668"/>
      <point x="113.66666666668" y="300.66666666668" type="curve" smooth="yes"/>
      <point x="113.66666666668" y="278.66666666668"/>
      <point x="129.6313512734" y="249.06622620888"/>
    </contour>
  </outline>
</glyph>
<glyph name="G" format="2">
  <advance width="780.8"/>
  <unicode hex="0047"/>
  <outline>
    <contour>
      <point x="385.8" y="262.2" type="curve" smooth="yes"/>
      <point x="436.6" y="262.2"/>
      <point x="516.6" y="298.2"/>
      <point x="689.6" y="298.2" type="curve" smooth="yes"/>
      <point x="733.4" y="298.2"/>
      <point x="752.4" y="326.0"/>
      <point x="752.4" y="354.8" type="curve" smooth="yes"/>
      <point x="752.4" y="385.4"/>
      <point x="738.8" y="404.8"/>
      <point x="670.0" y="404.8" type="curve" smooth="yes"/>
      <point x="571.6" y="404.0"/>
      <point x="480.4" y="389.0"/>
      <point x="392.0" y="366.2" type="curve" smooth="yes"/>
      <point x="342.0" y="353.4"/>
      <point x="329.0" y="338.0"/>
      <point x="329.0" y="314.4" type="curve" smooth="yes"/>
      <point x="329.0" y="284.2"/>
      <point x="351.8" y="262.2"/>
    </contour>
    <contour>
      <point x="683.8" y="-101.8" type="curve" smooth="yes"/>
      <point x="702.8" y="-101.8"/>
      <point x="723.8" y="-89.2"/>
      <point x="723.8" y="-64.2" type="curve"/>
      <point x="723.8" y="-46.0"/>
      <point x="719.8" y="-32.2"/>
      <point x="701.4" y="8.8" type="curve" smooth="yes"/>
      <point x="668.4" y="79.4"/>
      <point x="650.6" y="161.4"/>
      <point x="650.6" y="293.8" type="curve" smooth="yes"/>
      <point x="650.6" y="327.8"/>
      <point x="630.66666666668" y="348.0"/>
      <point x="596.6" y="348.0" type="curve" smooth="yes"/>
      <point x="559.4" y="348.0"/>
      <point x="544.2" y="335.6"/>
      <point x="525.8" y="299.6" type="curve" smooth="yes"/>
      <point x="461.2" y="164.8"/>
      <point x="381.6" y="99.80000000000001"/>
      <point x="290.0" y="99.80000000000001" type="curve" smooth="yes"/>
      <point x="216.0" y="99.80000000000001"/>
      <point x="173.4" y="157.8"/>
      <point x="173.4" y="243.8" type="curve" smooth="yes"/>
      <point x="173.4" y="399.4"/>
      <point x="334.8" y="588.4"/>
      <point x="478.6" y="588.4" type="curve" smooth="yes"/>
      <point x="533.0" y="588.4"/>
      <point x="488.6" y="525.0"/>
      <point x="533.4" y="525.0" type="curve" smooth="yes"/>
      <point x="566.2" y="525.0"/>
      <point x="605.0" y="579.2883116883199"/>
      <point x="605.0" y="630.0" type="curve" smooth="yes"/>
      <point x="605.0" y="672.16216216216"/>
      <point x="575.70212765956" y="708.0"/>
      <point x="503.0" y="708.0" type="curve" smooth="yes"/>
      <point x="292.43265306124" y="708.0"/>
      <point x="57.0" y="480.2"/>
      <point x="57.0" y="237.6" type="curve" smooth="yes"/>
      <point x="57.0" y="88.0"/>
      <point x="141.6" y="-10.0"/>
      <point x="285.0" y="-10.0" type="curve" smooth="yes"/>
      <point x="391.8" y="-10.0"/>
      <point x="493.6" y="39.6"/>
      <point x="576.2" y="222.0" type="curve"/>
      <point x="546.0" y="224.8" type="line"/>
      <point x="554.4" y="74.8"/>
      <point x="581.2" y="-5.6"/>
      <point x="602.4" y="-46.2" type="curve" smooth="yes"/>
      <point x="623.0" y="-85.4"/>
      <point x="646.8" y="-101.8"/>
    </contour>
  </outline>
</glyph>
<glyph name="H" format="2">
  <advance width="721.6"/>
  <unicode hex="0048"/>
  <outline>
    <contour>
      <point x="178.2" y="-12.0" type="curve" smooth="yes"/>
      <point x="203.4" y="-12.0"/>
      <point x="223.2" y="8.2"/>
      <point x="223.2" y="32.0" type="curve" smooth="yes"/>
      <point x="223.2" y="179.0"/>
      <point x="220.2" y="392.4"/>
      <point x="220.2" y="610.0" type="curve" smooth="yes"/>
      <point x="220.2" y="677.0"/>
      <point x="186.8" y="709.0"/>
      <point x="150.8" y="709.0" type="curve" smooth="yes"/>
      <point x="115.8" y="709.0"/>
      <point x="100.4" y="694.8"/>
      <point x="100.4" y="658.0" type="curve" smooth="yes"/>
      <point x="100.4" y="453.2"/>
      <point x="112.2" y="261.4"/>
      <point x="109.0" y="92.6" type="curve" smooth="yes"/>
      <point x="107.4" y="30.0"/>
      <point x="145.4" y="-12.0"/>
    </contour>
    <contour>
      <point x="591.8" y="-10.0" type="curve" smooth="yes"/>
      <point x="615.4" y="-10.0"/>
      <point x="629.8" y="10.600000000000001"/>
      <point x="626.2" y="37.8" type="curve" smooth="yes"/>
      <point x="618.4" y="118.0"/>
      <point x="608.2" y="176.0"/>
      <point x="607.2" y="233.0" type="curve" smooth="yes"/>
      <point x="606.2" y="325.6"/>
      <point x="613.2" y="472.0"/>
      <point x="613.2" y="590.0" type="curve" smooth="yes"/>
      <point x="613.2" y="665.2"/>
      <point x="583.8" y="704.0"/>
      <point x="547.0" y="704.0" type="curve" smooth="yes"/>
      <point x="524.4" y="704.0"/>
      <point x="503.8" y="690.6"/>
      <point x="503.8" y="660.0" type="curve" smooth="yes"/>
      <point x="503.8" y="573.0"/>
      <point x="493.6" y="442.0"/>
      <point x="493.6" y="303.0" type="curve" smooth="yes"/>
      <point x="493.6" y="81.4"/>
      <point x="519.8" y="-10.0"/>
    </contour>
    <contour>
      <point x="153.2" y="297.6" type="curve" smooth="yes"/>
      <point x="219.0" y="297.6"/>
      <point x="325.8" y="327.6"/>
      <point x="621.2" y="327.6" type="curve" smooth="yes"/>
      <point x="652.8" y="327.6"/>
      <point x="671.4" y="342.6"/>
      <point x="671.4" y="366.6" type="curve" smooth="yes"/>
      <point x="671.4" y="390.8"/>
      <point x="641.0" y="430.6"/>
      <point x="556.2" y="430.6" type="curve" smooth="yes"/>
      <point x="397.2" y="430.6"/>
      <point x="244.0" y="422.0"/>
      <point x="83.0" y="391.8" type="curve" smooth="yes"/>
      <point x="56.8" y="386.8"/>
      <point x="50.2" y="372.2"/>
      <point x="50.2" y="356.8" type="curve" smooth="yes"/>
      <point x="50.2" y="327.8"/>
      <point x="86.6" y="297.6"/>
    </contour>
  </outline>
</glyph>
<glyph name="I" format="2">
  <advance width="608.0"/>
  <unicode hex="0049"/>
  <outline>
    <contour>
      <point x="106.0" y="-11.0" type="curve" smooth="yes"/>
      <point x="168.07597744126002" y="-11.0"/>
      <point x="312.16310035152003" y="0.0"/>
      <point x="486.33333333332" y="0.0" type="curve" smooth="yes"/>
      <point x="554.96396396398" y="0.0"/>
      <point x="584.0" y="26.8245614035"/>
      <point x="584.0" y="59.0" type="curve" smooth="yes"/>
      <point x="584.0" y="81.23188405798001"/>
      <point x="570.48062015502" y="98.33333333332001"/>
      <point x="511.33333333332" y="98.33333333332001" type="curve" smooth="yes"/>
      <point x="337.00570994498" y="98.33333333332001"/>
      <point x="213.0" y="95.80000000000001"/>
      <point x="60.66666666668" y="82.66666666668" type="curve" smooth="yes"/>
      <point x="35.2" y="80.80000000000001"/>
      <point x="23.0" y="62.83333333332"/>
      <point x="23.0" y="42.33333333332" type="curve" smooth="yes"/>
      <point x="23.0" y="11.0"/>
      <point x="47.17475728158" y="-11.0"/>
    </contour>
    <contour>
      <point x="81.0" y="579.66666666668" type="curve"/>
      <point x="166.0" y="579.66666666668"/>
      <point x="218.0" y="599.66666666668"/>
      <point x="458.66666666668" y="599.66666666668" type="curve" smooth="yes"/>
      <point x="522.0" y="599.66666666668"/>
      <point x="569.0" y="624.33333333332"/>
      <point x="569.0" y="662.33333333332" type="curve" smooth="yes"/>
      <point x="569.0" y="694.0"/>
      <point x="554.33333333332" y="701.66666666668"/>
      <point x="506.0" y="701.66666666668" type="curve" smooth="yes"/>
      <point x="414.0" y="701.66666666668"/>
      <point x="183.33333333332" y="697.66666666668"/>
      <point x="68.66666666668" y="676.33333333332" type="curve" smooth="yes"/>
      <point x="33.0" y="669.0"/>
      <point x="25.0" y="653.0"/>
      <point x="25.0" y="633.0" type="curve" smooth="yes"/>
      <point x="25.0" y="601.33333333332"/>
      <point x="43.0" y="579.66666666668"/>
    </contour>
    <contour>
      <point x="302.0" y="66.66666666668" type="curve" smooth="yes"/>
      <point x="325.66666666668" y="66.66666666668"/>
      <point x="339.33333333332" y="80.33333333332"/>
      <point x="339.33333333332" y="109.0" type="curve" smooth="yes"/>
      <point x="339.33333333332" y="324.33333333332"/>
      <point x="356.33333333332" y="498.0"/>
      <point x="356.33333333332" y="588.33333333332" type="curve" smooth="yes"/>
      <point x="356.33333333332" y="627.33333333332"/>
      <point x="327.0" y="658.33333333332"/>
      <point x="291.33333333332" y="658.33333333332" type="curve" smooth="yes"/>
      <point x="261.66666666668" y="658.33333333332"/>
      <point x="252.33333333332" y="642.33333333332"/>
      <point x="252.33333333332" y="610.66666666668" type="curve" smooth="yes"/>
      <point x="252.33333333332" y="486.33333333332"/>
      <point x="236.0" y="316.0"/>
      <point x="236.0" y="143.66666666668" type="curve" smooth="yes"/>
      <point x="236.0" y="96.66666666668"/>
      <point x="262.0" y="66.66666666668"/>
    </contour>
  </outline>
</glyph>
<glyph name="J" format="2">
  <advance width="612.4"/>
  <unicode hex="004A"/>
  <outline>
    <contour>
      <point x="286.6" y="-12.0" type="curve" smooth="yes"/>
      <point x="452.6" y="-12.0"/>
      <point x="541.6" y="57.2"/>
      <point x="541.6" y="210.0" type="curve" smooth="yes"/>
      <point x="541.6" y="314.4"/>
      <point x="500.8" y="498.4"/>
      <point x="459.4" y="609.6" type="curve" smooth="yes"/>
      <point x="441.4" y="659.6"/>
      <point x="416.0" y="675.2"/>
      <point x="365.6" y="676.0" type="curve" smooth="yes"/>
      <point x="336.4" y="676.0"/>
      <point x="326.4" y="644.0"/>
      <point x="339.2" y="611.8" type="curve" smooth="yes"/>
      <point x="384.2" y="503.2"/>
      <point x="429.6" y="320.0"/>
      <point x="429.6" y="224.0" type="curve" smooth="yes"/>
      <point x="429.6" y="136.2"/>
      <point x="394.4" y="96.2"/>
      <point x="286.6" y="96.2" type="curve" smooth="yes"/>
      <point x="200.6" y="96.2"/>
      <point x="168.0" y="133.8"/>
      <point x="168.0" y="185.4" type="curve" smooth="yes"/>
      <point x="168.0" y="223.8"/>
      <point x="197.6" y="242.4"/>
      <point x="197.6" y="270.4" type="curve" smooth="yes"/>
      <point x="197.6" y="290.8"/>
      <point x="186.0" y="300.6"/>
      <point x="164.4" y="300.6" type="curve" smooth="yes"/>
      <point x="103.8" y="300.6"/>
      <point x="59.599999999999994" y="225.4"/>
      <point x="59.599999999999994" y="165.0" type="curve" smooth="yes"/>
      <point x="59.599999999999994" y="54.6"/>
      <point x="152.2" y="-12.0"/>
    </contour>
    <contour>
      <point x="175.8" y="590.8" type="curve" smooth="yes"/>
      <point x="255.8" y="590.8"/>
      <point x="382.2" y="605.2"/>
      <point x="512.6" y="605.2" type="curve" smooth="yes"/>
      <point x="550.8" y="605.2"/>
      <point x="570.6" y="620.2"/>
      <point x="570.6" y="647.2" type="curve" smooth="yes"/>
      <point x="570.6" y="700.2"/>
      <point x="521.0" y="712.0"/>
      <point x="476.6" y="712.0" type="curve" smooth="yes"/>
      <point x="349.0" y="712.0"/>
      <point x="284.2" y="700.0"/>
      <point x="192.4" y="700.0" type="curve" smooth="yes"/>
      <point x="151.4" y="700.0"/>
      <point x="131.8" y="713.0"/>
      <point x="96.0" y="713.0" type="curve" smooth="yes"/>
      <point x="72.4" y="713.0"/>
      <point x="59.2" y="698.2"/>
      <point x="59.2" y="675.0" type="curve" smooth="yes"/>
      <point x="59.2" y="613.8"/>
      <point x="127.8" y="590.8"/>
    </contour>
  </outline>
</glyph>
<glyph name="K" format="2">
  <advance width="650.0"/>
  <unicode hex="004B"/>
  <outline>
    <contour>
      <point x="142.0" y="-11.0" type="curve" smooth="yes"/>
      <point x="166.0" y="-11.0"/>
      <point x="181.0" y="4.0"/>
      <point x="181.0" y="29.0" type="curve" smooth="yes"/>
      <point x="181.0" y="80.0"/>
      <point x="169.0" y="127.0"/>
      <point x="169.0" y="209.0" type="curve" smooth="yes"/>
      <point x="169.0" y="332.0"/>
      <point x="193.0" y="467.0"/>
      <point x="193.0" y="552.0" type="curve" smooth="yes"/>
      <point x="193.0" y="617.0"/>
      <point x="182.6947368421" y="710.0"/>
      <point x="104.0" y="710.0" type="curve" smooth="yes"/>
      <point x="78.0" y="710.0"/>
      <point x="61.0" y="691.0"/>
      <point x="61.0" y="666.0" type="curve" smooth="yes"/>
      <point x="61.0" y="622.0"/>
      <point x="73.0" y="613.0"/>
      <point x="73.0" y="552.0" type="curve" smooth="yes"/>
      <point x="73.0" y="484.0"/>
      <point x="49.0" y="346.0"/>
      <point x="49.0" y="187.0" type="curve" smooth="yes"/>
      <point x="49.0" y="41.0"/>
      <point x="70.6060606061" y="-11.0"/>
    </contour>
    <contour>
      <point x="577.0" y="-11.0" type="curve" smooth="yes"/>
      <point x="610.0" y="-11.0"/>
      <point x="623.0" y="7.976744186"/>
      <point x="623.0" y="40.0" type="curve" smooth="yes"/>
      <point x="623.0" y="75.0"/>
      <point x="601.0" y="102.0"/>
      <point x="571.0" y="106.0" type="curve" smooth="yes"/>
      <point x="383.1883783689" y="136.9689376094"/>
      <point x="249.0" y="249.0"/>
      <point x="249.0" y="314.0" type="curve" smooth="yes"/>
      <point x="249.0" y="370.0"/>
      <point x="360.370783277" y="503.6515451378"/>
      <point x="521.0" y="580.0" type="curve" smooth="yes"/>
      <point x="542.0" y="590.0"/>
      <point x="557.0" y="611.0"/>
      <point x="557.0" y="641.0" type="curve" smooth="yes"/>
      <point x="557.0" y="686.671641791"/>
      <point x="537.9268292683" y="709.0"/>
      <point x="511.0" y="709.0" type="curve" smooth="yes"/>
      <point x="489.3218390805" y="709.0"/>
      <point x="464.8507294262" y="700.9812368117"/>
      <point x="429.0" y="678.0" type="curve" smooth="yes"/>
      <point x="285.0" y="588.0"/>
      <point x="139.0" y="436.0"/>
      <point x="139.0" y="300.0" type="curve" smooth="yes"/>
      <point x="139.0" y="105.0"/>
      <point x="454.0" y="-11.0"/>
    </contour>
  </outline>
</glyph>
<glyph name="L" format="2">
  <advance width="544.0"/>
  <unicode hex="004C"/>
  <outline>
    <contour>
      <point x="287.6" y="-9.0" type="curve" smooth="yes"/>
      <point x="361.6163090129" y="-9.0"/>
      <point x="433.78476562628003" y="6.10799597598"/>
      <point x="487.8" y="37.8" type="curve" smooth="yes"/>
      <point x="512.0" y="54.6"/>
      <point x="523.8" y="79.8"/>
      <point x="523.8" y="106.2" type="curve" smooth="yes"/>
      <point x="523.8" y="129.8"/>
      <point x="509.0" y="149.4"/>
      <point x="486.0" y="149.4" type="curve" smooth="yes"/>
      <point x="452.71428571426" y="149.4"/>
      <point x="417.6" y="99.2"/>
      <point x="292.2" y="99.2" type="curve" smooth="yes"/>
      <point x="205.0" y="99.2"/>
      <point x="171.2" y="152.0"/>
      <point x="171.2" y="240.0" type="curve" smooth="yes"/>
      <point x="171.2" y="356.6"/>
      <point x="222.0" y="481.8"/>
      <point x="222.0" y="614.4" type="curve" smooth="yes"/>
      <point x="222.0" y="666.6"/>
      <point x="199.84347826088" y="710.0"/>
      <point x="155.0" y="710.0" type="curve" smooth="yes"/>
      <point x="120.94285714285999" y="710.0"/>
      <point x="112.6" y="687.8"/>
      <point x="112.6" y="650.0" type="curve" smooth="yes"/>
      <point x="112.6" y="527.0"/>
      <point x="61.6" y="405.72745591940003"/>
      <point x="61.6" y="251.0" type="curve" smooth="yes"/>
      <point x="61.6" y="83.0"/>
      <point x="140.83157894734" y="-9.0"/>
    </contour>
  </outline>
</glyph>
<glyph name="M" format="2">
  <advance width="936.0"/>
  <unicode hex="004D"/>
  <outline>
    <contour>
      <point x="187.0" y="586.0" type="curve" smooth="yes"/>
      <point x="194.0" y="557.0"/>
      <point x="197.0" y="537.0"/>
      <point x="198.0" y="509.0" type="curve" smooth="yes"/>
      <point x="204.0" y="411.0"/>
      <point x="118.0" y="412.0"/>
      <point x="149.0" y="508.0" type="curve" smooth="yes"/>
      <point x="190.0" y="632.0"/>
      <point x="245.0" y="709.0"/>
      <point x="294.0" y="709.0" type="curve" smooth="yes"/>
      <point x="372.0" y="709.0"/>
      <point x="420.0" y="600.0"/>
      <point x="453.0" y="348.0" type="curve" smooth="yes"/>
      <point x="463.0" y="284.0"/>
      <point x="475.0" y="218.0"/>
      <point x="491.0" y="162.0" type="curve" smooth="yes"/>
      <point x="499.0" y="135.0"/>
      <point x="446.0" y="146.0"/>
      <point x="462.0" y="192.0" type="curve" smooth="yes"/>
      <point x="505.0" y="313.0"/>
      <point x="537.0" y="445.0"/>
      <point x="567.0" y="528.0" type="curve" smooth="yes"/>
      <point x="613.0" y="655.0"/>
      <point x="645.0" y="710.0"/>
      <point x="706.0" y="710.0" type="curve" smooth="yes"/>
      <point x="761.0" y="710.0"/>
      <point x="807.0" y="675.0"/>
      <point x="829.0" y="465.0" type="curve" smooth="yes"/>
      <point x="842.0" y="337.0"/>
      <point x="867.0" y="175.0"/>
      <point x="908.0" y="62.0" type="curve" smooth="yes"/>
      <point x="923.3687343622" y="19.9921260767"/>
      <point x="916.0" y="-9.0"/>
      <point x="877.0" y="-9.0" type="curve" smooth="yes"/>
      <point x="838.0" y="-9.0"/>
      <point x="815.6265381708" y="5.6768995654"/>
      <point x="784.0" y="63.0" type="curve" smooth="yes"/>
      <point x="741.0" y="142.0"/>
      <point x="725.8309958976" y="306.5773716226"/>
      <point x="714.0" y="417.0" type="curve" smooth="yes"/>
      <point x="708.0" y="478.0"/>
      <point x="699.0" y="526.0"/>
      <point x="683.0" y="580.0" type="curve" smooth="yes"/>
      <point x="669.0" y="627.0"/>
      <point x="765.0" y="645.0"/>
      <point x="723.0" y="566.0" type="curve" smooth="yes"/>
      <point x="673.0" y="473.0"/>
      <point x="629.0" y="283.0"/>
      <point x="532.0" y="29.0" type="curve" smooth="yes"/>
      <point x="523.0" y="5.0"/>
      <point x="502.0" y="-9.0"/>
      <point x="478.0" y="-9.0" type="curve" smooth="yes"/>
      <point x="458.0" y="-9.0"/>
      <point x="435.0" y="2.0"/>
      <point x="419.0" y="26.0" type="curve" smooth="yes"/>
      <point x="377.0" y="89.0"/>
      <point x="352.0" y="211.0"/>
      <point x="335.0" y="332.0" type="curve" smooth="yes"/>
      <point x="324.0" y="417.0"/>
      <point x="311.0" y="483.0"/>
      <point x="285.0" y="546.0" type="curve" smooth="yes"/>
      <point x="257.0" y="618.0"/>
      <point x="342.0" y="636.0"/>
      <point x="296.0" y="553.0" type="curve" smooth="yes"/>
      <point x="241.0" y="444.0"/>
      <point x="202.0" y="255.0"/>
      <point x="202.0" y="28.0" type="curve" smooth="yes"/>
      <point x="202.0" y="2.0"/>
      <point x="180.0" y="-12.0"/>
      <point x="157.0" y="-12.0" type="curve" smooth="yes"/>
      <point x="121.0" y="-12.0"/>
      <point x="87.0" y="10.0"/>
      <point x="81.0" y="56.0" type="curve" smooth="yes"/>
      <point x="51.0" y="283.0"/>
      <point x="92.0" y="472.0"/>
      <point x="58.0" y="612.0" type="curve" smooth="yes"/>
      <point x="53.0" y="633.0"/>
      <point x="67.0" y="660.0"/>
      <point x="92.0" y="660.0" type="curve" smooth="yes"/>
      <point x="133.0" y="660.0"/>
      <point x="176.0" y="639.0"/>
    </contour>
  </outline>
</glyph>
<glyph name="N" format="2">
  <advance width="785.6"/>
  <unicode hex="004E"/>
  <outline>
    <contour>
      <point x="129.0" y="-12.0" type="curve" smooth="yes"/>
      <point x="159.0" y="-12.0"/>
      <point x="177.6" y="6.4"/>
      <point x="185.2" y="33.8" type="curve" smooth="yes"/>
      <point x="210.0" y="114.0"/>
      <point x="221.0" y="217.0"/>
      <point x="221.0" y="342.0" type="curve" smooth="yes"/>
      <point x="221.0" y="408.8"/>
      <point x="217.2" y="477.0"/>
      <point x="205.0" y="579.8" type="curve"/>
      <point x="186.0" y="575.0" type="line"/>
      <point x="361.54767640299997" y="394.36554572384"/>
      <point x="393.08663366338" y="-12.8"/>
      <point x="579.0" y="-12.8" type="curve" smooth="yes"/>
      <point x="677.8" y="-12.8"/>
      <point x="694.0" y="94.29618320612"/>
      <point x="694.0" y="242.0" type="curve" smooth="yes"/>
      <point x="694.0" y="391.0"/>
      <point x="676.6" y="490.8"/>
      <point x="702.6" y="619.8" type="curve" smooth="yes"/>
      <point x="710.38575314848" y="659.13193170932"/>
      <point x="696.11683168316" y="709.0"/>
      <point x="647.6" y="709.0" type="curve" smooth="yes"/>
      <point x="620.13548387096" y="709.0"/>
      <point x="603.64278111876" y="692.96684636316"/>
      <point x="595.4" y="658.0" type="curve" smooth="yes"/>
      <point x="564.4" y="529.6"/>
      <point x="587.2" y="391.6"/>
      <point x="587.2" y="233.0" type="curve" smooth="yes"/>
      <point x="587.2" y="141.91228070175998"/>
      <point x="568.8" y="107.0"/>
      <point x="542.2" y="76.0" type="curve"/>
      <point x="595.6" y="101.6" type="line"/>
      <point x="457.2" y="134.0"/>
      <point x="370.8" y="710.0"/>
      <point x="156.0" y="710.0" type="curve" smooth="yes"/>
      <point x="116.0" y="710.0"/>
      <point x="95.0" y="678.0"/>
      <point x="95.0" y="638.0" type="curve" smooth="yes"/>
      <point x="95.0" y="605.0"/>
      <point x="111.0" y="457.0"/>
      <point x="111.0" y="342.0" type="curve" smooth="yes"/>
      <point x="111.0" y="137.2"/>
      <point x="77.4" y="98.4"/>
      <point x="77.4" y="44.2" type="curve" smooth="yes"/>
      <point x="77.4" y="7.6"/>
      <point x="95.0" y="-12.0"/>
    </contour>
  </outline>
</glyph>
<glyph name="O" format="2">
  <advance width="706.0"/>
  <unicode hex="004F"/>
  <outline>
    <contour>
      <point x="280.66666666668" y="538.33333333332" type="curve" smooth="yes"/>
      <point x="178.66666666668" y="463.0"/>
      <point x="150.0" y="384.49228944248"/>
      <point x="150.0" y="290.0" type="curve" smooth="yes"/>
      <point x="150.0" y="192.33333333332"/>
      <point x="209.99787685772" y="92.0"/>
      <point x="337.0" y="92.0" type="curve" smooth="yes"/>
      <point x="456.288209607" y="92.0"/>
      <point x="556.0" y="175.0"/>
      <point x="556.0" y="300.0" type="curve" smooth="yes"/>
      <point x="556.0" y="438.2886597938"/>
      <point x="484.42611683847997" y="610.0"/>
      <point x="351.0" y="610.0" type="curve" smooth="yes"/>
      <point x="324.51111111112" y="610.0"/>
      <point x="316.33333333332" y="587.4898989899"/>
      <point x="316.33333333332" y="558.0" type="curve" smooth="yes"/>
      <point x="316.33333333332" y="528.0"/>
      <point x="299.33333333332" y="513.0"/>
      <point x="281.33333333332" y="513.0" type="curve" smooth="yes"/>
      <point x="251.133744856" y="513.0"/>
      <point x="220.33333333332" y="538.85897435898"/>
      <point x="220.33333333332" y="588.66666666668" type="curve" smooth="yes"/>
      <point x="220.33333333332" y="653.0"/>
      <point x="265.06763285028" y="711.0"/>
      <point x="344.0" y="711.0" type="curve" smooth="yes"/>
      <point x="531.33333333332" y="711.0"/>
      <point x="659.33333333332" y="508.66666666668"/>
      <point x="659.33333333332" y="300.0" type="curve" smooth="yes"/>
      <point x="659.33333333332" y="128.33333333332"/>
      <point x="523.47373447948" y="-10.0"/>
      <point x="337.0" y="-10.0" type="curve" smooth="yes"/>
      <point x="150.146811071" y="-10.0"/>
      <point x="46.66666666668" y="135.66666666668"/>
      <point x="46.66666666668" y="290.0" type="curve" smooth="yes"/>
      <point x="46.66666666668" y="416.5020920502"/>
      <point x="98.69234942393999" y="536.90392599502"/>
      <point x="235.8" y="627.0" type="curve" smooth="yes"/>
      <point x="258.8" y="642.8"/>
      <point x="276.4874518519" y="640.09846148804"/>
      <point x="296.0" y="614.33333333332" type="curve" smooth="yes"/>
      <point x="313.79166453802003" y="589.7647088874401"/>
      <point x="305.33333333332" y="557.0"/>
    </contour>
  </outline>
</glyph>
<glyph name="P" format="2">
  <advance width="604.0"/>
  <unicode hex="0050"/>
  <outline>
    <contour>
      <point x="114.8" y="82.2" type="curve" smooth="yes"/>
      <point x="114.8" y="16.8"/>
      <point x="142.4" y="-10.0"/>
      <point x="182.2" y="-10.0" type="curve" smooth="yes"/>
      <point x="214.4" y="-10.0"/>
      <point x="226.2" y="16.4"/>
      <point x="226.2" y="67.0" type="curve" smooth="yes"/>
      <point x="226.2" y="248.6"/>
      <point x="169.6" y="351.0"/>
      <point x="169.6" y="466.0" type="curve" smooth="yes"/>
      <point x="169.6" y="552.2"/>
      <point x="219.4" y="599.0"/>
      <point x="318.0" y="599.0" type="curve" smooth="yes"/>
      <point x="385.8" y="599.0"/>
      <point x="449.2" y="559.8"/>
      <point x="449.2" y="480.0" type="curve" smooth="yes"/>
      <point x="449.2" y="400.6"/>
      <point x="369.8" y="324.0"/>
      <point x="267.2" y="324.0" type="curve" smooth="yes"/>
      <point x="209.0" y="324.0"/>
      <point x="197.0" y="342.0"/>
      <point x="170.8" y="342.0" type="curve" smooth="yes"/>
      <point x="150.2" y="342.0"/>
      <point x="134.2" y="328.4"/>
      <point x="134.2" y="303.0" type="curve" smooth="yes"/>
      <point x="134.2" y="257.6"/>
      <point x="192.2" y="215.0"/>
      <point x="271.8" y="215.0" type="curve" smooth="yes"/>
      <point x="435.2" y="215.0"/>
      <point x="558.6" y="348.4"/>
      <point x="558.6" y="480.0" type="curve" smooth="yes"/>
      <point x="558.6" y="625.0"/>
      <point x="450.2" y="708.0"/>
      <point x="318.2" y="708.0" type="curve" smooth="yes"/>
      <point x="133.8" y="708.0"/>
      <point x="60.2" y="610.8"/>
      <point x="60.2" y="466.0" type="curve" smooth="yes"/>
      <point x="60.2" y="346.2"/>
      <point x="114.8" y="255.8"/>
    </contour>
  </outline>
</glyph>
<glyph name="Q" format="2">
  <advance width="735.2"/>
  <unicode hex="0051"/>
  <outline>
    <contour>
      <point x="463.0" y="270.2" type="curve" smooth="yes"/>
      <point x="492.2" y="229.0"/>
      <point x="548.6" y="78.8"/>
      <point x="633.0" y="-27.799999999999997" type="curve" smooth="yes"/>
      <point x="670.6" y="-75.4"/>
      <point x="655.4" y="-129.6"/>
      <point x="623.4" y="-129.6" type="curve" smooth="yes"/>
      <point x="597.4" y="-129.6"/>
      <point x="578.0" y="-121.0"/>
      <point x="546.4" y="-86.6" type="curve" smooth="yes"/>
      <point x="477.2" y="-11.8"/>
      <point x="411.4" y="163.4"/>
      <point x="354.6" y="244.4" type="curve" smooth="yes"/>
      <point x="322.0" y="289.8"/>
      <point x="329.4" y="326.4"/>
      <point x="369.2" y="326.4" type="curve" smooth="yes"/>
      <point x="414.6" y="326.4"/>
      <point x="435.0" y="309.4"/>
    </contour>
    <contour>
      <point x="260.4" y="549.0" type="curve" smooth="yes"/>
      <point x="199.2" y="504.2"/>
      <point x="164.6" y="402.2"/>
      <point x="164.6" y="313.0" type="curve" smooth="yes"/>
      <point x="164.6" y="202.2"/>
      <point x="219.8" y="100.0"/>
      <point x="370.0" y="100.0" type="curve" smooth="yes"/>
      <point x="492.0" y="100.0"/>
      <point x="567.8" y="205.4"/>
      <point x="567.8" y="315.0" type="curve" smooth="yes"/>
      <point x="567.8" y="454.4"/>
      <point x="501.4" y="596.0"/>
      <point x="394.0" y="596.0" type="curve" smooth="yes"/>
      <point x="344.2" y="596.0"/>
      <point x="294.8" y="558.8"/>
      <point x="261.0" y="493.4" type="curve" smooth="yes"/>
      <point x="245.0" y="462.4"/>
      <point x="230.0" y="452.4"/>
      <point x="207.0" y="452.4" type="curve" smooth="yes"/>
      <point x="180.6" y="452.4"/>
      <point x="166.8" y="467.4"/>
      <point x="166.8" y="498.2" type="curve" smooth="yes"/>
      <point x="166.8" y="587.6"/>
      <point x="287.4" y="709.0"/>
      <point x="409.0" y="709.0" type="curve" smooth="yes"/>
      <point x="554.8" y="709.0"/>
      <point x="678.0" y="546.0"/>
      <point x="678.0" y="327.0" type="curve" smooth="yes"/>
      <point x="678.0" y="148.8"/>
      <point x="563.4" y="-9.0"/>
      <point x="370.0" y="-9.0" type="curve" smooth="yes"/>
      <point x="139.4" y="-9.0"/>
      <point x="56.0" y="144.0"/>
      <point x="56.0" y="313.0" type="curve" smooth="yes"/>
      <point x="56.0" y="521.2"/>
      <point x="189.8" y="654.8"/>
      <point x="251.0" y="654.8" type="curve" smooth="yes"/>
      <point x="280.4" y="654.8"/>
      <point x="308.4" y="630.2"/>
      <point x="308.4" y="605.2" type="curve" smooth="yes"/>
      <point x="308.4" y="584.2"/>
      <point x="295.6" y="574.2"/>
    </contour>
  </outline>
</glyph>
<glyph name="R" format="2">
  <advance width="722.4"/>
  <unicode hex="0052"/>
  <outline>
    <contour>
      <point x="102.6" y="648.6" type="curve" smooth="yes"/>
      <point x="62.2" y="648.6"/>
      <point x="51.8" y="621.4"/>
      <point x="67.2" y="577.2" type="curve" smooth="yes"/>
      <point x="97.0" y="491.4"/>
      <point x="110.4" y="438.8"/>
      <point x="112.2" y="362.2" type="curve"/>
      <point x="77.2" y="259.2"/>
      <point x="61.2" y="178.6"/>
      <point x="61.2" y="114.0" type="curve" smooth="yes"/>
      <point x="61.2" y="30.4"/>
      <point x="97.2" y="-13.0"/>
      <point x="138.8" y="-13.0" type="curve" smooth="yes"/>
      <point x="166.6" y="-13.0"/>
      <point x="175.4" y="-1.7999999999999998"/>
      <point x="175.4" y="58.4" type="curve" smooth="yes"/>
      <point x="175.4" y="393.4"/>
      <point x="342.8" y="601.0"/>
      <point x="476.2" y="601.0" type="curve" smooth="yes"/>
      <point x="525.2" y="601.0"/>
      <point x="544.0" y="572.4"/>
      <point x="544.0" y="536.2" type="curve" smooth="yes"/>
      <point x="544.0" y="470.2"/>
      <point x="465.4" y="371.6"/>
      <point x="223.2" y="297.8" type="curve" smooth="yes"/>
      <point x="181.8" y="285.0"/>
      <point x="171.6" y="238.2"/>
      <point x="194.6" y="207.2" type="curve" smooth="yes"/>
      <point x="273.6" y="105.2"/>
      <point x="526.4" y="-12.0"/>
      <point x="600.8" y="-12.0" type="curve" smooth="yes"/>
      <point x="651.2" y="-12.0"/>
      <point x="680.0" y="10.600000000000001"/>
      <point x="680.0" y="44.6" type="curve" smooth="yes"/>
      <point x="680.0" y="66.0"/>
      <point x="662.0" y="80.2"/>
      <point x="610.0" y="95.2" type="curve" smooth="yes"/>
      <point x="496.8" y="130.2"/>
      <point x="394.0" y="182.2"/>
      <point x="325.6" y="232.4" type="curve"/>
      <point x="569.6" y="316.6"/>
      <point x="655.6" y="430.0"/>
      <point x="655.6" y="540.4" type="curve" smooth="yes"/>
      <point x="655.6" y="635.4"/>
      <point x="605.4" y="710.0"/>
      <point x="486.4" y="710.0" type="curve" smooth="yes"/>
      <point x="364.0" y="710.0"/>
      <point x="253.2" y="636.6"/>
      <point x="181.4" y="481.4" type="curve"/>
      <point x="205.0" y="486.8" type="line"/>
      <point x="189.6" y="605.8"/>
      <point x="155.4" y="648.6"/>
    </contour>
  </outline>
</glyph>
<glyph name="S" format="2">
  <advance width="577.8"/>
  <unicode hex="0053"/>
  <outline>
    <contour>
      <point x="202.0" y="-9.0" type="curve" smooth="yes"/>
      <point x="383.04489795918" y="-9.0"/>
      <point x="520.0" y="40.0"/>
      <point x="520.0" y="143.4" type="curve" smooth="yes"/>
      <point x="520.0" y="316.61428571426"/>
      <point x="172.0" y="335.91020408164"/>
      <point x="172.0" y="431.2" type="curve" smooth="yes"/>
      <point x="172.0" y="498.5479452055"/>
      <point x="282.48265403368" y="565.53328007324"/>
      <point x="467.4" y="602.4" type="curve" smooth="yes"/>
      <point x="500.4196486115" y="608.47629974754"/>
      <point x="516.0" y="626.9157894737"/>
      <point x="516.0" y="652.2" type="curve" smooth="yes"/>
      <point x="516.0" y="684.175"/>
      <point x="498.25263157896" y="710.0"/>
      <point x="451.8" y="710.0" type="curve" smooth="yes"/>
      <point x="328.53984962406" y="710.0"/>
      <point x="59.0" y="598.2"/>
      <point x="59.0" y="431.0" type="curve" smooth="yes"/>
      <point x="59.0" y="251.0"/>
      <point x="380.4" y="241.4"/>
      <point x="405.0" y="141.4" type="curve"/>
      <point x="361.8" y="114.2"/>
      <point x="295.6" y="98.6"/>
      <point x="188.8" y="98.6" type="curve" smooth="yes"/>
      <point x="131.2" y="98.6"/>
      <point x="119.2" y="115.4"/>
      <point x="88.0" y="115.4" type="curve" smooth="yes"/>
      <point x="59.2" y="115.4"/>
      <point x="49.8" y="101.6"/>
      <point x="49.8" y="78.0" type="curve" smooth="yes"/>
      <point x="49.8" y="31.400000000000002"/>
      <point x="101.45" y="-9.0"/>
    </contour>
  </outline>
</glyph>
<glyph name="T" format="2">
  <advance width="641.0"/>
  <unicode hex="0054"/>
  <outline>
    <contour>
      <point x="259.8" y="596.8" type="curve" smooth="yes"/>
      <point x="235.8" y="314.8"/>
      <point x="241.8" y="180.0"/>
      <point x="258.8" y="87.4" type="curve" smooth="yes"/>
      <point x="273.4" y="9.0"/>
      <point x="304.0" y="-13.0"/>
      <point x="339.0" y="-13.0" type="curve" smooth="yes"/>
      <point x="364.4" y="-13.0"/>
      <point x="379.4" y="-2.0"/>
      <point x="379.4" y="29.0" type="curve" smooth="yes"/>
      <point x="379.4" y="70.4"/>
      <point x="344.6" y="167.0"/>
      <point x="367.8" y="532.0" type="curve" smooth="yes"/>
      <point x="372.8" y="620.0"/>
      <point x="357.8" y="652.0"/>
      <point x="306.0" y="652.0" type="curve" smooth="yes"/>
      <point x="279.4" y="652.0"/>
      <point x="262.2" y="629.2"/>
    </contour>
    <contour>
      <point x="125.6" y="600.6" type="curve" smooth="yes"/>
      <point x="246.8" y="593.8"/>
      <point x="333.4" y="593.2"/>
      <point x="479.0" y="593.2" type="curve" smooth="yes"/>
      <point x="544.6" y="593.2"/>
      <point x="612.0" y="616.4"/>
      <point x="612.0" y="670.6" type="curve" smooth="yes"/>
      <point x="612.0" y="694.4"/>
      <point x="598.0" y="711.0"/>
      <point x="568.0" y="711.0" type="curve" smooth="yes"/>
      <point x="516.2" y="711.0"/>
      <point x="490.6" y="700.0"/>
      <point x="409.2" y="700.0" type="curve" smooth="yes"/>
      <point x="291.4" y="700.0"/>
      <point x="214.2" y="707.6"/>
      <point x="70.0" y="707.6" type="curve" smooth="yes"/>
      <point x="38.0" y="707.6"/>
      <point x="25.4" y="691.4"/>
      <point x="25.4" y="671.4" type="curve" smooth="yes"/>
      <point x="25.4" y="632.04545454546"/>
      <point x="45.2" y="605.0"/>
    </contour>
  </outline>
</glyph>
<glyph name="U" format="2">
  <advance width="666.0"/>
  <unicode hex="0055"/>
  <outline>
    <contour>
      <point x="355.0" y="-13.0" type="curve" smooth="yes"/>
      <point x="525.40682414694" y="-13.0"/>
      <point x="602.33333333332" y="114.0"/>
      <point x="602.33333333332" y="298.0" type="curve" smooth="yes"/>
      <point x="602.33333333332" y="422.0"/>
      <point x="587.33333333332" y="526.0"/>
      <point x="605.33333333332" y="650.0" type="curve" smooth="yes"/>
      <point x="611.33333333332" y="692.66666666668"/>
      <point x="592.33333333332" y="712.0"/>
      <point x="564.0" y="712.0" type="curve" smooth="yes"/>
      <point x="524.33333333332" y="712.0"/>
      <point x="488.66666666668" y="672.66666666668"/>
      <point x="488.66666666668" y="615.0" type="curve" smooth="yes"/>
      <point x="488.66666666668" y="498.0"/>
      <point x="496.66666666668" y="429.0"/>
      <point x="496.66666666668" y="305.0" type="curve" smooth="yes"/>
      <point x="496.66666666668" y="153.66666666668"/>
      <point x="460.66666666668" y="91.0"/>
      <point x="348.0" y="91.0" type="curve" smooth="yes"/>
      <point x="231.66666666668" y="91.0"/>
      <point x="167.0" y="158.66666666668"/>
      <point x="186.0" y="413.0" type="curve" smooth="yes"/>
      <point x="194.33333333332" y="530.0"/>
      <point x="192.33333333332" y="616.66666666668"/>
      <point x="174.0" y="661.66666666668" type="curve" smooth="yes"/>
      <point x="158.66666666668" y="701.66666666668"/>
      <point x="134.0" y="716.0"/>
      <point x="109.33333333332" y="716.0" type="curve"/>
      <point x="86.33333333332" y="716.0"/>
      <point x="62.66666666668" y="703.33333333332"/>
      <point x="62.66666666668" y="670.0" type="curve" smooth="yes"/>
      <point x="62.66666666668" y="600.0"/>
      <point x="91.66666666668" y="596.0"/>
      <point x="78.66666666668" y="399.0" type="curve" smooth="yes"/>
      <point x="62.66821099944" y="154.02364759620002"/>
      <point x="140.18256772671998" y="-13.0"/>
    </contour>
  </outline>
</glyph>
<glyph name="V" format="2">
  <advance width="674.6"/>
  <unicode hex="0056"/>
  <outline>
    <contour>
      <point x="346.0" y="-11.4" type="curve" smooth="yes"/>
      <point x="376.0" y="-11.4"/>
      <point x="390.6" y="5.6000000000000005"/>
      <point x="404.8" y="57.4" type="curve" smooth="yes"/>
      <point x="461.8" y="260.8"/>
      <point x="521.2" y="382.6"/>
      <point x="628.4" y="563.8" type="curve" smooth="yes"/>
      <point x="650.8" y="601.4"/>
      <point x="658.2" y="619.2"/>
      <point x="658.2" y="652.8" type="curve" smooth="yes"/>
      <point x="658.2" y="685.2"/>
      <point x="641.2" y="711.4"/>
      <point x="611.0" y="711.4" type="curve" smooth="yes"/>
      <point x="588.4" y="711.4"/>
      <point x="574.8" y="705.4"/>
      <point x="534.2" y="642.6" type="curve" smooth="yes"/>
      <point x="434.4" y="487.2"/>
      <point x="362.8" y="316.8"/>
      <point x="310.4" y="114.0" type="curve"/>
      <point x="342.6" y="141.8" type="line"/>
      <point x="250.6" y="281.8"/>
      <point x="240.6" y="512.0"/>
      <point x="156.4" y="644.4" type="curve" smooth="yes"/>
      <point x="127.6" y="691.6"/>
      <point x="104.0" y="708.4"/>
      <point x="74.2" y="708.4" type="curve" smooth="yes"/>
      <point x="42.2" y="708.4"/>
      <point x="27.599999999999998" y="686.6"/>
      <point x="27.599999999999998" y="662.0" type="curve" smooth="yes"/>
      <point x="27.599999999999998" y="631.6"/>
      <point x="44.2" y="607.4"/>
      <point x="71.8" y="564.8" type="curve" smooth="yes"/>
      <point x="136.2" y="467.4"/>
      <point x="139.6" y="258.0"/>
      <point x="249.2" y="70.4" type="curve" smooth="yes"/>
      <point x="288.0" y="3.0"/>
      <point x="307.6" y="-11.4"/>
    </contour>
  </outline>
</glyph>
<glyph name="W" format="2">
  <advance width="970.8"/>
  <unicode hex="0057"/>
  <outline>
    <contour>
      <point x="170.6" y="629.8" type="curve" smooth="yes"/>
      <point x="167.6" y="679.8"/>
      <point x="145.2" y="712.0"/>
      <point x="91.8" y="712.0" type="curve" smooth="yes"/>
      <point x="59.4" y="712.0"/>
      <point x="47.2" y="683.2"/>
      <point x="49.6" y="650.2" type="curve" smooth="yes"/>
      <point x="62.8" y="460.8"/>
      <point x="124.8" y="202.8"/>
      <point x="188.8" y="63.0" type="curve" smooth="yes"/>
      <point x="216.6" y="2.4"/>
      <point x="245.0" y="-8.0"/>
      <point x="270.8" y="-8.0" type="curve" smooth="yes"/>
      <point x="303.0" y="-8.0"/>
      <point x="323.4" y="11.8"/>
      <point x="331.4" y="48.8" type="curve" smooth="yes"/>
      <point x="368.6" y="234.6"/>
      <point x="417.4" y="435.4"/>
      <point x="501.2" y="532.2" type="curve" smooth="yes"/>
      <point x="520.8" y="554.2"/>
      <point x="449.6" y="569.0"/>
      <point x="472.0" y="541.6" type="curve" smooth="yes"/>
      <point x="548.0" y="448.8"/>
      <point x="548.6" y="173.2"/>
      <point x="625.2" y="59.6" type="curve" smooth="yes"/>
      <point x="664.8" y="0.40000000000000036"/>
      <point x="692.6" y="-12.0"/>
      <point x="730.0" y="-12.0" type="curve" smooth="yes"/>
      <point x="751.4" y="-12.0"/>
      <point x="771.4" y="0.19999999999999996"/>
      <point x="788.8" y="42.0" type="curve" smooth="yes"/>
      <point x="848.6" y="190.0"/>
      <point x="863.4" y="451.6"/>
      <point x="913.2" y="596.2" type="curve" smooth="yes"/>
      <point x="933.6" y="657.4"/>
      <point x="924.2" y="712.0"/>
      <point x="868.0" y="712.0" type="curve" smooth="yes"/>
      <point x="843.0" y="712.0"/>
      <point x="827.8" y="704.2"/>
      <point x="810.6" y="665.0" type="curve" smooth="yes"/>
      <point x="762.6" y="550.8"/>
      <point x="748.4" y="265.6"/>
      <point x="690.8" y="131.60000000000002" type="curve" smooth="yes"/>
      <point x="677.0" y="94.0"/>
      <point x="756.6" y="85.4"/>
      <point x="730.2" y="120.0" type="curve" smooth="yes"/>
      <point x="646.4" y="232.8"/>
      <point x="641.4" y="431.4"/>
      <point x="606.4" y="531.0" type="curve" smooth="yes"/>
      <point x="575.8" y="620.0"/>
      <point x="548.0" y="652.0"/>
      <point x="499.0" y="652.0" type="curve" smooth="yes"/>
      <point x="461.8" y="652.0"/>
      <point x="430.6" y="625.0"/>
      <point x="401.4" y="584.6" type="curve" smooth="yes"/>
      <point x="337.8" y="495.2"/>
      <point x="285.2" y="335.6"/>
      <point x="243.0" y="129.60000000000002" type="curve" smooth="yes"/>
      <point x="232.2" y="75.60000000000001"/>
      <point x="295.4" y="86.6"/>
      <point x="270.8" y="159.8" type="curve" smooth="yes"/>
      <point x="218.2" y="310.0"/>
      <point x="179.6" y="497.8"/>
    </contour>
  </outline>
</glyph>
<glyph name="X" format="2">
  <advance width="630.6"/>
  <unicode hex="0058"/>
  <outline>
    <contour>
      <point x="179.0" y="663.0" type="curve" smooth="yes"/>
      <point x="242.0" y="458.6"/>
      <point x="475.6" y="255.0"/>
      <point x="551.6" y="134.2" type="curve" smooth="yes"/>
      <point x="608.4" y="46.6"/>
      <point x="572.8" y="-8.4"/>
      <point x="525.8" y="-8.4" type="curve" smooth="yes"/>
      <point x="502.2" y="-8.4"/>
      <point x="479.4" y="5.0"/>
      <point x="451.8" y="52.6" type="curve" smooth="yes"/>
      <point x="371.0" y="198.6"/>
      <point x="128.8" y="419.6"/>
      <point x="72.2" y="575.8" type="curve" smooth="yes"/>
      <point x="36.0" y="676.0"/>
      <point x="54.6" y="710.6"/>
      <point x="113.0" y="710.6" type="curve" smooth="yes"/>
      <point x="147.6" y="710.6"/>
      <point x="171.2" y="688.0"/>
    </contour>
    <contour>
      <point x="552.0" y="586.0" type="curve" smooth="yes"/>
      <point x="432.2" y="468.0"/>
      <point x="261.4" y="259.6"/>
      <point x="145.6" y="38.2" type="curve" smooth="yes"/>
      <point x="125.6" y="0.20000000000000018"/>
      <point x="110.80000000000001" y="-9.8"/>
      <point x="85.4" y="-9.8" type="curve" smooth="yes"/>
      <point x="44.6" y="-9.8"/>
      <point x="24.2" y="42.2"/>
      <point x="68.6" y="121.2" type="curve" smooth="yes"/>
      <point x="168.2" y="298.8"/>
      <point x="356.4" y="563.0"/>
      <point x="484.0" y="680.4" type="curve" smooth="yes"/>
      <point x="507.2" y="701.6"/>
      <point x="520.8" y="708.2"/>
      <point x="539.2" y="708.2" type="curve" smooth="yes"/>
      <point x="578.0" y="708.2"/>
      <point x="610.6" y="644.0"/>
    </contour>
  </outline>
</glyph>
<glyph name="Y" format="2">
  <advance width="606.0"/>
  <unicode hex="0059"/>
  <outline>
    <contour>
      <point x="555.0" y="574.0" type="curve" smooth="yes"/>
      <point x="424.8040169256" y="453.8190925467"/>
      <point x="320.0" y="239.0"/>
      <point x="280.0" y="39.0" type="curve" smooth="yes"/>
      <point x="272.0" y="-1.0"/>
      <point x="255.0" y="-14.0"/>
      <point x="222.0" y="-14.0" type="curve" smooth="yes"/>
      <point x="191.0" y="-14.0"/>
      <point x="159.4811295796" y="40.6759039041"/>
      <point x="174.0" y="109.0" type="curve" smooth="yes"/>
      <point x="209.0994057233" y="278.3030158416"/>
      <point x="328.2749074812" y="532.1223222234"/>
      <point x="490.0" y="683.0" type="curve" smooth="yes"/>
      <point x="517.0" y="708.0"/>
      <point x="532.0" y="713.0"/>
      <point x="547.0" y="713.0" type="curve" smooth="yes"/>
      <point x="571.4210526316" y="713.0"/>
      <point x="595.0" y="679.1111111111"/>
      <point x="595.0" y="652.0" type="curve" smooth="yes"/>
      <point x="595.0" y="623.0"/>
      <point x="589.0" y="606.0"/>
    </contour>
    <contour>
      <point x="115.0" y="681.0" type="curve" smooth="yes"/>
      <point x="208.0" y="540.0"/>
      <point x="245.0" y="519.0"/>
      <point x="332.0" y="355.0" type="curve" smooth="yes"/>
      <point x="344.0" y="332.0"/>
      <point x="329.0" y="293.0"/>
      <point x="302.0" y="283.0" type="curve" smooth="yes"/>
      <point x="271.0" y="269.0"/>
      <point x="253.0" y="282.0"/>
      <point x="239.0" y="306.0" type="curve" smooth="yes"/>
      <point x="148.8450037861" y="454.9517328751"/>
      <point x="108.0" y="479.0"/>
      <point x="47.0" y="572.0" type="curve" smooth="yes"/>
      <point x="23.552650389" y="607.6807494081"/>
      <point x="18.0" y="622.6172839506"/>
      <point x="18.0" y="654.0" type="curve" smooth="yes"/>
      <point x="18.0" y="686.4310344828"/>
      <point x="39.4565217391" y="711.0"/>
      <point x="65.0" y="711.0" type="curve" smooth="yes"/>
      <point x="84.0" y="711.0"/>
      <point x="100.2641466671" y="702.6125848883"/>
    </contour>
  </outline>
</glyph>
<glyph name="Z" format="2">
  <advance width="654.0"/>
  <unicode hex="005A"/>
  <outline>
    <contour>
      <point x="111.0" y="681.8" type="curve" smooth="yes"/>
      <point x="189.8" y="700.0"/>
      <point x="265.2" y="710.0"/>
      <point x="340.0" y="710.0" type="curve" smooth="yes"/>
      <point x="533.2" y="710.0"/>
      <point x="580.0" y="640.4"/>
      <point x="580.0" y="562.8" type="curve" smooth="yes"/>
      <point x="580.0" y="476.0"/>
      <point x="552.0" y="430.6"/>
      <point x="351.2" y="305.2" type="curve" smooth="yes"/>
      <point x="164.6" y="187.8"/>
      <point x="164.2" y="156.4"/>
      <point x="164.2" y="80.80000000000001" type="curve" smooth="yes"/>
      <point x="160.4" y="54.2"/>
      <point x="96.2" y="125.80000000000001"/>
      <point x="133.8" y="109.80000000000001" type="curve" smooth="yes"/>
      <point x="157.8" y="99.4"/>
      <point x="183.2" y="96.80000000000001"/>
      <point x="211.2" y="96.80000000000001" type="curve" smooth="yes"/>
      <point x="283.2" y="96.80000000000001"/>
      <point x="362.6" y="109.2"/>
      <point x="449.0" y="109.2" type="curve" smooth="yes"/>
      <point x="562.4" y="109.2"/>
      <point x="628.0" y="90.80000000000001"/>
      <point x="628.0" y="32.6" type="curve" smooth="yes"/>
      <point x="628.0" y="7.6000000000000005"/>
      <point x="609.0" y="-7.0"/>
      <point x="576.6" y="-7.0" type="curve" smooth="yes"/>
      <point x="531.8" y="-7.0"/>
      <point x="508.4" y="0.0"/>
      <point x="433.0" y="0.0" type="curve" smooth="yes"/>
      <point x="350.0" y="0.0"/>
      <point x="272.0" y="-8.6"/>
      <point x="205.0" y="-8.6" type="curve" smooth="yes"/>
      <point x="93.0" y="-8.6"/>
      <point x="53.8" y="44.4"/>
      <point x="53.8" y="117.4" type="curve" smooth="yes"/>
      <point x="53.8" y="187.6"/>
      <point x="80.0" y="266.2"/>
      <point x="292.2" y="395.4" type="curve" smooth="yes"/>
      <point x="461.6" y="498.6"/>
      <point x="474.2" y="535.2"/>
      <point x="470.2" y="592.0" type="curve" smooth="yes"/>
      <point x="468.4" y="638.4"/>
      <point x="519.8" y="554.0"/>
      <point x="483.2" y="577.8" type="curve" smooth="yes"/>
      <point x="457.6" y="594.0"/>
      <point x="431.4" y="600.6"/>
      <point x="359.4" y="600.6" type="curve" smooth="yes"/>
      <point x="244.0" y="600.6"/>
      <point x="183.0" y="575.8"/>
      <point x="139.0" y="575.8" type="curve" smooth="yes"/>
      <point x="106.4" y="575.8"/>
      <point x="65.0" y="593.0"/>
      <point x="65.0" y="633.4" type="curve" smooth="yes"/>
      <point x="65.0" y="655.2"/>
      <point x="79.0" y="673.8"/>
    </contour>
  </outline>
</glyph>
<glyph name="a" format="2">
  <advance width="668.0"/>
  <unicode hex="0061"/>
  <outline>
    <contour>
      <point x="390.2" y="395.0" type="curve" smooth="yes"/>
      <point x="394.6" y="422.4"/>
      <point x="415.8" y="438.8"/>
      <point x="438.0" y="438.8" type="curve" smooth="yes"/>
      <point x="476.22857142858" y="438.8"/>
      <point x="505.4" y="410.0"/>
      <point x="514.0" y="369.6" type="curve" smooth="yes"/>
      <point x="537.2" y="253.2"/>
      <point x="552.0" y="178.0"/>
      <point x="624.2" y="89.4" type="curve" smooth="yes"/>
      <point x="650.6" y="58.8"/>
      <point x="627.6" y="-7.0"/>
      <point x="582.8" y="-7.0" type="curve" smooth="yes"/>
      <point x="562.0" y="-7.0"/>
      <point x="550.9007667201" y="2.08091205808"/>
      <point x="540.2" y="14.8" type="curve" smooth="yes"/>
      <point x="483.80589393388" y="84.69263258261999"/>
      <point x="447.0" y="153.0"/>
      <point x="429.0" y="322.8" type="curve"/>
      <point x="470.4" y="324.6" type="line"/>
      <point x="428.98497005694" y="75.85540158244"/>
      <point x="304.2560311284" y="-10.0"/>
      <point x="193.8" y="-10.0" type="curve" smooth="yes"/>
      <point x="109.8" y="-10.0"/>
      <point x="55.0" y="55.2"/>
      <point x="55.0" y="155.0" type="curve" smooth="yes"/>
      <point x="55.0" y="319.43515850142"/>
      <point x="193.07682119208" y="506.8"/>
      <point x="355.0" y="506.8" type="curve" smooth="yes"/>
      <point x="391.8" y="506.8"/>
      <point x="420.2" y="484.4"/>
      <point x="420.2" y="444.0" type="curve" smooth="yes"/>
      <point x="420.2" y="425.8"/>
      <point x="408.8" y="413.8"/>
      <point x="389.4" y="411.0" type="curve" smooth="yes"/>
      <point x="255.82169707424" y="389.14573517554"/>
      <point x="164.4" y="269.9042253521"/>
      <point x="164.4" y="148.6" type="curve" smooth="yes"/>
      <point x="164.4" y="115.2"/>
      <point x="167.6" y="93.2"/>
      <point x="186.6" y="50.8" type="curve"/>
      <point x="128.2" y="121.6" type="line"/>
      <point x="155.2" y="104.6"/>
      <point x="170.0" y="96.80000000000001"/>
      <point x="194.2" y="96.80000000000001" type="curve" smooth="yes"/>
      <point x="282.0" y="96.80000000000001"/>
      <point x="359.4" y="200.2"/>
    </contour>
  </outline>
</glyph>
<glyph name="b" format="2">
  <advance width="599.0"/>
  <unicode hex="0062"/>
  <outline>
    <contour>
      <point x="192.0" y="723.0" type="curve" smooth="yes"/>
      <point x="192.0" y="642.8037037037"/>
      <point x="175.6" y="574.1476923077199"/>
      <point x="175.6" y="424.8" type="curve" smooth="yes"/>
      <point x="175.6" y="371.61034482758"/>
      <point x="177.25705266405998" y="319.76333281878"/>
      <point x="183.2" y="250.0" type="curve" smooth="yes"/>
      <point x="186.60132536976" y="205.17525976446"/>
      <point x="144.2" y="232.8"/>
      <point x="157.2" y="285.0" type="curve" smooth="yes"/>
      <point x="190.0" y="431.6"/>
      <point x="285.34153846156" y="506.6"/>
      <point x="372.2" y="506.6" type="curve" smooth="yes"/>
      <point x="475.84848484848" y="506.6"/>
      <point x="555.0" y="443.01212121212"/>
      <point x="555.0" y="293.0" type="curve" smooth="yes"/>
      <point x="555.0" y="107.97704918032001"/>
      <point x="382.50091743122" y="-10.0"/>
      <point x="202.0" y="-10.0" type="curve" smooth="yes"/>
      <point x="138.6" y="-10.0"/>
      <point x="65.2" y="10.4"/>
      <point x="65.2" y="66.6" type="curve" smooth="yes"/>
      <point x="65.2" y="94.99999999997999"/>
      <point x="84.8" y="108.6"/>
      <point x="113.2" y="108.6" type="curve" smooth="yes"/>
      <point x="133.4" y="108.6"/>
      <point x="162.8" y="98.2"/>
      <point x="190.0" y="98.2" type="curve" smooth="yes"/>
      <point x="316.15294117646" y="98.2"/>
      <point x="444.0" y="164.9277108434"/>
      <point x="444.0" y="302.0" type="curve" smooth="yes"/>
      <point x="444.0" y="352.8731707317"/>
      <point x="428.23880597016" y="397.4"/>
      <point x="371.0" y="397.4" type="curve" smooth="yes"/>
      <point x="275.0" y="397.4"/>
      <point x="216.88523805572" y="278.23115418456"/>
      <point x="185.0" y="110.0" type="curve" smooth="yes"/>
      <point x="179.6" y="84.6"/>
      <point x="166.8" y="73.4"/>
      <point x="148.6" y="73.4" type="curve" smooth="yes"/>
      <point x="125.0" y="73.4"/>
      <point x="104.8" y="99.4"/>
      <point x="97.0" y="142.0" type="curve" smooth="yes"/>
      <point x="78.00203146768" y="248.62024549624"/>
      <point x="68.0" y="363.45555555558"/>
      <point x="68.0" y="428.0" type="curve" smooth="yes"/>
      <point x="68.0" y="602.43113772458"/>
      <point x="92.02789618276" y="671.58616794398"/>
      <point x="84.0" y="761.2" type="curve" smooth="yes"/>
      <point x="81.62985953322" y="787.0864749014"/>
      <point x="94.0" y="809.8"/>
      <point x="119.2" y="809.8" type="curve" smooth="yes"/>
      <point x="155.8926829268" y="809.8"/>
      <point x="192.0" y="778.81492537312"/>
    </contour>
  </outline>
</glyph>
<glyph name="c" format="2">
  <advance width="510.0"/>
  <unicode hex="0063"/>
  <outline>
    <contour>
      <point x="464.0" y="115.6" type="curve" smooth="yes"/>
      <point x="464.0" y="152.0"/>
      <point x="453.0" y="165.6"/>
      <point x="430.2" y="165.6" type="curve" smooth="yes"/>
      <point x="390.6" y="165.6"/>
      <point x="397.8" y="100.0"/>
      <point x="274.4" y="100.0" type="curve" smooth="yes"/>
      <point x="196.4" y="100.0"/>
      <point x="153.6" y="144.89696969694"/>
      <point x="153.6" y="213.0" type="curve" smooth="yes"/>
      <point x="153.6" y="306.96363636362"/>
      <point x="233.4" y="397.4"/>
      <point x="343.0" y="397.4" type="curve" smooth="yes"/>
      <point x="372.4" y="397.4"/>
      <point x="373.4" y="378.0"/>
      <point x="394.4" y="378.0" type="curve" smooth="yes"/>
      <point x="423.0731707317" y="378.0"/>
      <point x="438.0" y="403.49473684208"/>
      <point x="438.0" y="436.0" type="curve" smooth="yes"/>
      <point x="438.0" y="494.3"/>
      <point x="395.5" y="507.0"/>
      <point x="353.0" y="507.0" type="curve" smooth="yes"/>
      <point x="186.2" y="507.0"/>
      <point x="44.0" y="380.4"/>
      <point x="44.0" y="220.0" type="curve" smooth="yes"/>
      <point x="44.0" y="84.8"/>
      <point x="135.2" y="-9.0"/>
      <point x="278.0" y="-9.0" type="curve" smooth="yes"/>
      <point x="385.8" y="-9.0"/>
      <point x="464.0" y="39.4"/>
    </contour>
  </outline>
</glyph>
<glyph name="d" format="2">
  <advance width="651.0"/>
  <unicode hex="0064"/>
  <outline>
    <contour>
      <point x="269.0" y="-9.0" type="curve" smooth="yes"/>
      <point x="353.4" y="-9.0"/>
      <point x="446.2" y="67.8"/>
      <point x="488.2" y="273.6" type="curve"/>
      <point x="432.6" y="268.0" type="line"/>
      <point x="424.2" y="121.0"/>
      <point x="483.33394495414" y="-12.8"/>
      <point x="553.0" y="-12.8" type="curve" smooth="yes"/>
      <point x="587.2" y="-12.8"/>
      <point x="610.8" y="16.0"/>
      <point x="610.8" y="41.0" type="curve" smooth="yes"/>
      <point x="610.8" y="86.12"/>
      <point x="531.0" y="91.62"/>
      <point x="531.0" y="302.4" type="curve" smooth="yes"/>
      <point x="531.0" y="444.4972477064"/>
      <point x="554.8" y="535.51467889906"/>
      <point x="558.8" y="699.4" type="curve" smooth="yes"/>
      <point x="561.2" y="771.2"/>
      <point x="536.5699999999999" y="810.0"/>
      <point x="488.0" y="810.0" type="curve" smooth="yes"/>
      <point x="464.00909090908" y="810.0"/>
      <point x="446.0" y="796.19452054796"/>
      <point x="446.0" y="750.6" type="curve" smooth="yes"/>
      <point x="446.0" y="332.69955947138"/>
      <point x="368.2" y="100.0"/>
      <point x="263.4" y="100.0" type="curve" smooth="yes"/>
      <point x="210.8" y="100.0"/>
      <point x="155.2" y="183.4"/>
      <point x="155.2" y="279.0" type="curve" smooth="yes"/>
      <point x="155.2" y="353.6"/>
      <point x="203.8" y="398.8"/>
      <point x="288.6" y="398.8" type="curve" smooth="yes"/>
      <point x="372.4" y="398.8"/>
      <point x="376.07716535436" y="358.8"/>
      <point x="409.2" y="358.8" type="curve" smooth="yes"/>
      <point x="423.92" y="358.8"/>
      <point x="435.6" y="372.8"/>
      <point x="435.6" y="393.2" type="curve" smooth="yes"/>
      <point x="435.6" y="462.6"/>
      <point x="372.0" y="507.8"/>
      <point x="270.0" y="507.8" type="curve" smooth="yes"/>
      <point x="133.4" y="508.6"/>
      <point x="42.0" y="417.20689655172"/>
      <point x="42.0" y="279.0" type="curve" smooth="yes"/>
      <point x="42.0" y="124.0"/>
      <point x="135.6" y="-9.0"/>
    </contour>
  </outline>
</glyph>
<glyph name="e" format="2">
  <advance width="569.0"/>
  <unicode hex="0065"/>
  <outline>
    <contour>
      <point x="222.0" y="180.0" type="curve" smooth="yes"/>
      <point x="365.6" y="180.0"/>
      <point x="478.0" y="238.2"/>
      <point x="478.0" y="349.0" type="curve" smooth="yes"/>
      <point x="478.0" y="452.0"/>
      <point x="409.58728323698" y="507.0"/>
      <point x="311.0" y="507.0" type="curve" smooth="yes"/>
      <point x="143.32258064514" y="507.0"/>
      <point x="37.0" y="348.6"/>
      <point x="37.0" y="210.0" type="curve" smooth="yes"/>
      <point x="37.0" y="82.0"/>
      <point x="106.2" y="-10.0"/>
      <point x="265.0" y="-10.0" type="curve" smooth="yes"/>
      <point x="404.48728813558" y="-10.0"/>
      <point x="517.2" y="67.2"/>
      <point x="517.2" y="126.4" type="curve" smooth="yes"/>
      <point x="517.2" y="152.8"/>
      <point x="509.2" y="165.4"/>
      <point x="488.6" y="165.4" type="curve" smooth="yes"/>
      <point x="446.2" y="165.4"/>
      <point x="405.0" y="91.4"/>
      <point x="256.4" y="91.4" type="curve" smooth="yes"/>
      <point x="174.27352941174001" y="91.4"/>
      <point x="144.8" y="135.8"/>
      <point x="144.8" y="195.4" type="curve" smooth="yes"/>
      <point x="144.8" y="300.4"/>
      <point x="217.89473684208" y="399.4"/>
      <point x="318.8" y="399.4" type="curve" smooth="yes"/>
      <point x="359.46582278482003" y="399.4"/>
      <point x="375.4" y="381.4"/>
      <point x="375.4" y="347.0" type="curve" smooth="yes"/>
      <point x="375.4" y="292.0"/>
      <point x="306.98534031416" y="257.0"/>
      <point x="212.0" y="257.0" type="curve" smooth="yes"/>
      <point x="180.0" y="257.0"/>
      <point x="161.4" y="263.8"/>
      <point x="146.8" y="263.8" type="curve" smooth="yes"/>
      <point x="127.0" y="263.8"/>
      <point x="119.8" y="255.6"/>
      <point x="119.8" y="238.6" type="curve" smooth="yes"/>
      <point x="119.8" y="208.8"/>
      <point x="151.4" y="180.0"/>
    </contour>
  </outline>
</glyph>
<glyph name="f" format="2">
  <advance width="404.0"/>
  <unicode hex="0066"/>
  <outline>
    <contour>
      <point x="328.0" y="407.4" type="curve" smooth="yes"/>
      <point x="356.21666666664" y="408.6"/>
      <point x="369.0" y="424.59999999998"/>
      <point x="369.0" y="445.0" type="curve" smooth="yes"/>
      <point x="369.0" y="479.84186046514003"/>
      <point x="338.75" y="504.0"/>
      <point x="304.2" y="504.0" type="curve" smooth="yes"/>
      <point x="235.8" y="504.0"/>
      <point x="192.6" y="499.0"/>
      <point x="133.0" y="483.8" type="curve" smooth="yes"/>
      <point x="95.6" y="473.4"/>
      <point x="78.8" y="445.4"/>
      <point x="78.8" y="414.8" type="curve" smooth="yes"/>
      <point x="78.8" y="390.60869565219997"/>
      <point x="100.6" y="375.2"/>
      <point x="125.6" y="375.2" type="curve" smooth="yes"/>
      <point x="160.47533632286" y="375.2"/>
      <point x="193.56412556054" y="403.0"/>
    </contour>
    <contour>
      <point x="160.0" y="-169.0" type="curve" smooth="yes"/>
      <point x="190.22978723404" y="-169.0"/>
      <point x="204.6" y="-154.0"/>
      <point x="204.6" y="-98.2" type="curve" smooth="yes"/>
      <point x="204.6" y="156.38385321098"/>
      <point x="153.8" y="297.79192660552"/>
      <point x="153.8" y="443.6" type="curve" smooth="yes"/>
      <point x="153.8" y="593.8"/>
      <point x="176.0" y="670.2"/>
      <point x="325.8" y="712.4" type="curve" smooth="yes"/>
      <point x="352.2" y="720.4"/>
      <point x="365.0" y="736.07058823528"/>
      <point x="365.0" y="759.0" type="curve" smooth="yes"/>
      <point x="365.0" y="795.0"/>
      <point x="333.4" y="810.0"/>
      <point x="304.2" y="810.0" type="curve" smooth="yes"/>
      <point x="166.2" y="810.0"/>
      <point x="44.2" y="688.0"/>
      <point x="44.2" y="483.0" type="curve" smooth="yes"/>
      <point x="44.2" y="264.58003502628003"/>
      <point x="93.0" y="178.7908931699"/>
      <point x="93.0" y="-71.6" type="curve" smooth="yes"/>
      <point x="93.0" y="-133.97931034482"/>
      <point x="126.54339622644" y="-169.0"/>
    </contour>
  </outline>
</glyph>
<glyph name="g" format="2">
  <advance width="624.0"/>
  <unicode hex="0067"/>
  <outline>
    <contour>
      <point x="446.4" y="464.6" type="curve" smooth="yes"/>
      <point x="490.43037974684" y="464.6"/>
      <point x="515.2034332927" y="426.75651162608"/>
      <point x="518.2" y="388.0" type="curve" smooth="yes"/>
      <point x="531.8" y="224.2"/>
      <point x="581.0" y="150.0"/>
      <point x="581.0" y="-44.6" type="curve" smooth="yes"/>
      <point x="581.0" y="-178.4"/>
      <point x="511.33684210525996" y="-260.0"/>
      <point x="389.0" y="-260.0" type="curve" smooth="yes"/>
      <point x="172.88068965516" y="-260.0"/>
      <point x="110.4" y="-159.472"/>
      <point x="110.4" y="-88.6" type="curve" smooth="yes"/>
      <point x="110.4" y="-50.2"/>
      <point x="137.2" y="-19.0"/>
      <point x="176.8" y="-19.0" type="curve" smooth="yes"/>
      <point x="198.0" y="-19.0"/>
      <point x="206.0" y="-30.0"/>
      <point x="206.0" y="-51.0" type="curve" smooth="yes"/>
      <point x="206.0" y="-110.6"/>
      <point x="268.4881355932" y="-151.6"/>
      <point x="379.0" y="-151.6" type="curve" smooth="yes"/>
      <point x="449.6" y="-151.6"/>
      <point x="471.6" y="-110.51612903226001"/>
      <point x="471.6" y="-35.2" type="curve" smooth="yes"/>
      <point x="471.6" y="103.29684210524"/>
      <point x="430.4" y="170.0"/>
      <point x="418.4" y="281.6" type="curve"/>
      <point x="463.2" y="272.2" type="line"/>
      <point x="435.39040425449997" y="128.4175521217"/>
      <point x="340.21725888326" y="71.0"/>
      <point x="242.0" y="71.0" type="curve" smooth="yes"/>
      <point x="119.48527918782" y="71.0"/>
      <point x="43.0" y="136.92577319588"/>
      <point x="43.0" y="257.0" type="curve" smooth="yes"/>
      <point x="43.0" y="393.88421052629997"/>
      <point x="160.2" y="508.4"/>
      <point x="290.0" y="508.4" type="curve" smooth="yes"/>
      <point x="393.2" y="508.4"/>
      <point x="428.8" y="450.54086956522"/>
      <point x="428.8" y="396.2" type="curve" smooth="yes"/>
      <point x="428.8" y="372.8"/>
      <point x="414.2" y="350.6"/>
      <point x="399.6" y="350.6" type="curve" smooth="yes"/>
      <point x="361.5172413793" y="350.6"/>
      <point x="355.8" y="403.2"/>
      <point x="306.6" y="403.2" type="curve" smooth="yes"/>
      <point x="226.8" y="403.2"/>
      <point x="152.4" y="331.84657534246"/>
      <point x="152.4" y="259.6" type="curve" smooth="yes"/>
      <point x="152.4" y="208.16774193548"/>
      <point x="180.2" y="180.0"/>
      <point x="241.8" y="180.0" type="curve" smooth="yes"/>
      <point x="333.0" y="180.0"/>
      <point x="408.2" y="249.2"/>
      <point x="408.2" y="416.0" type="curve" smooth="yes"/>
      <point x="408.2" y="449.8"/>
      <point x="417.4" y="464.6"/>
    </contour>
  </outline>
</glyph>
<glyph name="h" format="2">
  <advance width="645.0"/>
  <unicode hex="0068"/>
  <outline>
    <contour>
      <point x="549.2" y="-10.8" type="curve" smooth="yes"/>
      <point x="577.01818181816" y="-10.8"/>
      <point x="598.8" y="7.8500000000000005"/>
      <point x="598.8" y="31.200000000000003" type="curve" smooth="yes"/>
      <point x="598.8" y="44.70769230772"/>
      <point x="593.8927966897" y="57.2144066206"/>
      <point x="588.0" y="69.0" type="curve" smooth="yes"/>
      <point x="569.0010746412" y="102.91386643154"/>
      <point x="548.3195493529599" y="141.76465668598"/>
      <point x="536.0" y="268.0" type="curve" smooth="yes"/>
      <point x="522.25821899372" y="419.55959106884"/>
      <point x="499.2" y="509.2"/>
      <point x="405.0" y="509.2" type="curve" smooth="yes"/>
      <point x="322.0" y="509.2"/>
      <point x="246.4" y="420.8"/>
      <point x="153.8" y="183.60000000000002" type="curve"/>
      <point x="179.0" y="153.2" type="line"/>
      <point x="176.6" y="355.8"/>
      <point x="222.0" y="513.0"/>
      <point x="222.0" y="637.8" type="curve" smooth="yes"/>
      <point x="222.0" y="767.6"/>
      <point x="186.1625" y="810.0"/>
      <point x="144.4" y="810.0" type="curve" smooth="yes"/>
      <point x="110.91999999999999" y="810.0"/>
      <point x="99.0" y="787.6"/>
      <point x="99.0" y="764.2" type="curve" smooth="yes"/>
      <point x="99.0" y="723.2"/>
      <point x="111.6" y="681.4"/>
      <point x="111.6" y="617.0" type="curve" smooth="yes"/>
      <point x="111.6" y="492.0"/>
      <point x="67.0" y="338.2"/>
      <point x="67.0" y="111.0" type="curve" smooth="yes"/>
      <point x="67.0" y="36.0"/>
      <point x="99.1230769231" y="-10.0"/>
      <point x="139.0" y="-10.0" type="curve" smooth="yes"/>
      <point x="163.2" y="-10.0"/>
      <point x="181.2" y="-0.7999999999999998"/>
      <point x="194.2" y="33.6" type="curve" smooth="yes"/>
      <point x="268.4" y="251.4"/>
      <point x="357.4" y="380.6"/>
      <point x="399.2" y="385.8" type="curve"/>
      <point x="417.0" y="350.8"/>
      <point x="425.6" y="304.4"/>
      <point x="433.4" y="185.6" type="curve" smooth="yes"/>
      <point x="440.57894969366" y="82.29996686506"/>
      <point x="486.04941176472" y="-10.8"/>
    </contour>
  </outline>
</glyph>
<glyph name="i" format="2">
  <advance width="304.8"/>
  <unicode hex="0069"/>
  <outline>
    <contour>
      <point x="158.6" y="-10.6" type="curve" smooth="yes"/>
      <point x="185.0" y="-10.6"/>
      <point x="198.6" y="6.800000000000001"/>
      <point x="198.6" y="35.0" type="curve" smooth="yes"/>
      <point x="198.6" y="113.0"/>
      <point x="209.2" y="360.6"/>
      <point x="208.2" y="433.0" type="curve" smooth="yes"/>
      <point x="207.2" y="482.0"/>
      <point x="180.0" y="508.0"/>
      <point x="147.2" y="508.0" type="curve" smooth="yes"/>
      <point x="112.6" y="508.0"/>
      <point x="81.8" y="472.0"/>
      <point x="81.8" y="428.0" type="curve" smooth="yes"/>
      <point x="81.8" y="327.8"/>
      <point x="87.2" y="268.8"/>
      <point x="87.2" y="71.0" type="curve" smooth="yes"/>
      <point x="87.2" y="28.4"/>
      <point x="118.8" y="-10.6"/>
    </contour>
    <contour>
      <point x="164.0" y="646.6" type="curve" smooth="yes"/>
      <point x="210.6" y="646.6"/>
      <point x="228.4" y="677.6"/>
      <point x="228.4" y="705.0" type="curve" smooth="yes"/>
      <point x="228.4" y="753.0"/>
      <point x="189.2" y="812.2"/>
      <point x="124.6" y="812.2" type="curve" smooth="yes"/>
      <point x="89.6" y="812.2"/>
      <point x="61.4" y="784.2"/>
      <point x="61.4" y="747.2" type="curve" smooth="yes"/>
      <point x="61.4" y="695.6"/>
      <point x="108.6" y="646.6"/>
    </contour>
  </outline>
</glyph>
<glyph name="j" format="2">
  <advance width="282.6"/>
  <unicode hex="006A"/>
  <outline>
    <contour>
      <point x="160.0" y="451.6" type="curve" smooth="yes"/>
      <point x="197.2" y="276.4"/>
      <point x="222.6" y="126.6"/>
      <point x="222.6" y="-40.0" type="curve" smooth="yes"/>
      <point x="222.6" y="-185.0"/>
      <point x="144.4" y="-260.0"/>
      <point x="25.6" y="-260.0" type="curve" smooth="yes"/>
      <point x="-65.2" y="-260.0"/>
      <point x="-117.0" y="-220.4"/>
      <point x="-117.0" y="-172.6" type="curve" smooth="yes"/>
      <point x="-117.0" y="-145.0"/>
      <point x="-101.8" y="-129.6"/>
      <point x="-79.4" y="-129.6" type="curve" smooth="yes"/>
      <point x="-44.4" y="-129.6"/>
      <point x="-25.799999999999997" y="-151.6"/>
      <point x="16.6" y="-151.6" type="curve" smooth="yes"/>
      <point x="78.8" y="-151.6"/>
      <point x="114.4" y="-113.4"/>
      <point x="114.4" y="-41.6" type="curve" smooth="yes"/>
      <point x="114.4" y="251.2"/>
      <point x="47.6" y="332.6"/>
      <point x="47.6" y="433.2" type="curve" smooth="yes"/>
      <point x="47.6" y="486.4"/>
      <point x="74.4" y="507.2"/>
      <point x="102.2" y="507.2" type="curve" smooth="yes"/>
      <point x="129.0" y="507.2"/>
      <point x="150.0" y="496.2"/>
    </contour>
    <contour>
      <point x="141.2" y="645.8" type="curve" smooth="yes"/>
      <point x="187.8" y="645.8"/>
      <point x="205.6" y="682.0"/>
      <point x="205.6" y="713.0" type="curve" smooth="yes"/>
      <point x="205.6" y="755.0"/>
      <point x="172.8" y="807.4"/>
      <point x="117.8" y="807.4" type="curve" smooth="yes"/>
      <point x="78.0" y="807.4"/>
      <point x="46.6" y="776.2"/>
      <point x="46.6" y="734.4" type="curve" smooth="yes"/>
      <point x="46.6" y="689.2"/>
      <point x="89.8" y="645.8"/>
    </contour>
  </outline>
</glyph>
<glyph name="k" format="2">
  <advance width="606.0"/>
  <unicode hex="006B"/>
  <outline>
    <contour>
      <point x="504.6" y="-7.0" type="curve" smooth="yes"/>
      <point x="535.4" y="-7.0"/>
      <point x="551.4" y="10.2"/>
      <point x="551.4" y="37.400000000000006" type="curve" smooth="yes"/>
      <point x="551.4" y="67.2"/>
      <point x="535.0" y="96.4"/>
      <point x="476.0" y="112.80000000000001" type="curve" smooth="yes"/>
      <point x="345.12497183178004" y="150.76735978534"/>
      <point x="288.6" y="210.2"/>
      <point x="288.6" y="237.0" type="curve" smooth="yes"/>
      <point x="288.6" y="273.34029850746003"/>
      <point x="380.94795059116" y="358.9097573155"/>
      <point x="484.4" y="396.4" type="curve" smooth="yes"/>
      <point x="527.4" y="411.0"/>
      <point x="542.6" y="426.6"/>
      <point x="542.6" y="453.6" type="curve" smooth="yes"/>
      <point x="542.6" y="488.8"/>
      <point x="520.03333333332" y="507.8"/>
      <point x="483.8" y="507.8" type="curve" smooth="yes"/>
      <point x="393.2" y="507.8"/>
      <point x="172.0" y="348.4"/>
      <point x="172.0" y="229.0" type="curve" smooth="yes"/>
      <point x="172.0" y="126.0"/>
      <point x="389.4" y="-7.0"/>
    </contour>
    <contour>
      <point x="122.8" y="810.0" type="curve" smooth="yes"/>
      <point x="93.4" y="810.0"/>
      <point x="79.6" y="793.8"/>
      <point x="79.6" y="765.0" type="curve" smooth="yes"/>
      <point x="79.6" y="723.3"/>
      <point x="95.2" y="707.0"/>
      <point x="95.2" y="592.2" type="curve" smooth="yes"/>
      <point x="95.2" y="404.4"/>
      <point x="67.0" y="214.5139344262"/>
      <point x="67.0" y="125.0" type="curve" smooth="yes"/>
      <point x="67.0" y="16.6"/>
      <point x="103.7" y="-10.0"/>
      <point x="140.0" y="-10.0" type="curve" smooth="yes"/>
      <point x="166.46666666666" y="-10.0"/>
      <point x="181.0" y="4.2"/>
      <point x="181.0" y="36.2" type="curve" smooth="yes"/>
      <point x="181.0" y="75.6"/>
      <point x="176.0" y="109.96"/>
      <point x="176.0" y="161.0" type="curve" smooth="yes"/>
      <point x="176.0" y="291.3943793911"/>
      <point x="207.0" y="372.2"/>
      <point x="207.0" y="596.0" type="curve" smooth="yes"/>
      <point x="207.0" y="761.0"/>
      <point x="173.6" y="810.0"/>
    </contour>
  </outline>
</glyph>
<glyph name="l" format="2">
  <advance width="357.4"/>
  <unicode hex="006C"/>
  <outline>
    <contour>
      <point x="194.6" y="720.6" type="curve" smooth="yes"/>
      <point x="194.6" y="643.6"/>
      <point x="169.0" y="554.8"/>
      <point x="169.0" y="347.0" type="curve" smooth="yes"/>
      <point x="169.0" y="143.6"/>
      <point x="193.8" y="99.2"/>
      <point x="225.0" y="99.2" type="curve" smooth="yes"/>
      <point x="260.8" y="99.2"/>
      <point x="277.9625" y="124.80000000000001"/>
      <point x="301.2" y="124.80000000000001" type="curve" smooth="yes"/>
      <point x="326.95" y="124.80000000000001"/>
      <point x="335.4" y="105.52363636362"/>
      <point x="335.4" y="79.0" type="curve" smooth="yes"/>
      <point x="335.4" y="23.4625"/>
      <point x="282.8" y="-11.0"/>
      <point x="209.4" y="-11.0" type="curve" smooth="yes"/>
      <point x="139.6" y="-11.0"/>
      <point x="57.4" y="33.2"/>
      <point x="57.4" y="367.0" type="curve" smooth="yes"/>
      <point x="57.4" y="529.8"/>
      <point x="69.75920508176" y="634.8969520360599"/>
      <point x="86.6" y="743.6" type="curve" smooth="yes"/>
      <point x="94.6" y="792.2"/>
      <point x="109.8" y="810.0"/>
      <point x="136.0" y="810.0" type="curve" smooth="yes"/>
      <point x="172.6" y="810.0"/>
      <point x="194.6" y="784.4"/>
    </contour>
  </outline>
</glyph>
<glyph name="m" format="2">
  <advance width="867.0"/>
  <unicode hex="006D"/>
  <outline>
    <contour>
      <point x="169.0" y="372.0" type="curve" smooth="yes"/>
      <point x="169.0" y="303.0"/>
      <point x="109.0" y="314.0"/>
      <point x="134.0" y="377.0" type="curve" smooth="yes"/>
      <point x="172.0" y="472.0"/>
      <point x="224.0" y="510.0"/>
      <point x="268.0" y="510.0" type="curve" smooth="yes"/>
      <point x="357.6083916084" y="510.0"/>
      <point x="391.9640026594" y="431.1929457457"/>
      <point x="417.0" y="297.0" type="curve" smooth="yes"/>
      <point x="429.0" y="231.0"/>
      <point x="433.0" y="209.0"/>
      <point x="439.0" y="185.0" type="curve" smooth="yes"/>
      <point x="454.2191747893" y="112.2861648958"/>
      <point x="392.3812840625" y="137.9150009821"/>
      <point x="410.0" y="200.0" type="curve" smooth="yes"/>
      <point x="462.4141655591" y="378.4097558455"/>
      <point x="545.1894273128" y="510.0"/>
      <point x="634.0" y="510.0" type="curve" smooth="yes"/>
      <point x="734.0" y="510.0"/>
      <point x="775.0" y="429.0"/>
      <point x="790.0" y="262.0" type="curve" smooth="yes"/>
      <point x="806.0" y="84.0"/>
      <point x="842.0" y="85.0"/>
      <point x="842.0" y="35.0" type="curve" smooth="yes"/>
      <point x="842.0" y="11.0"/>
      <point x="823.0" y="-9.0"/>
      <point x="794.0" y="-9.0" type="curve" smooth="yes"/>
      <point x="733.0" y="-9.0"/>
      <point x="698.0" y="43.0"/>
      <point x="681.0" y="187.0" type="curve" smooth="yes"/>
      <point x="663.0" y="342.0"/>
      <point x="652.3206787695" y="366.339054571"/>
      <point x="626.0" y="403.0" type="curve" smooth="yes"/>
      <point x="603.0" y="435.0"/>
      <point x="676.0" y="431.0"/>
      <point x="643.0" y="398.0" type="curve" smooth="yes"/>
      <point x="562.0" y="321.0"/>
      <point x="528.0" y="192.0"/>
      <point x="484.0" y="27.0" type="curve" smooth="yes"/>
      <point x="478.0" y="4.0"/>
      <point x="460.0" y="-9.0"/>
      <point x="443.0" y="-9.0" type="curve" smooth="yes"/>
      <point x="371.2352941176" y="-9.0"/>
      <point x="336.0105728171" y="88.9372679518"/>
      <point x="321.0" y="178.0" type="curve" smooth="yes"/>
      <point x="301.0212004256" y="297.8727974462"/>
      <point x="284.4743607784" y="357.6862512059"/>
      <point x="249.0" y="404.0" type="curve" smooth="yes"/>
      <point x="230.6198732402" y="429.3820798111"/>
      <point x="301.5697449881" y="418.8059079171"/>
      <point x="277.0" y="390.0" type="curve" smooth="yes"/>
      <point x="209.5818886385" y="312.1368291318"/>
      <point x="185.0016125683" y="166.018764431"/>
      <point x="174.0" y="38.0" type="curve" smooth="yes"/>
      <point x="171.0" y="7.0"/>
      <point x="146.0" y="-9.0"/>
      <point x="122.0" y="-9.0" type="curve" smooth="yes"/>
      <point x="60.5555555556" y="-9.0"/>
      <point x="43.0" y="78.0"/>
      <point x="43.0" y="166.0" type="curve"/>
      <point x="43.0" y="227.0"/>
      <point x="51.0" y="294.0"/>
      <point x="51.0" y="354.0" type="curve" smooth="yes"/>
      <point x="51.0" y="386.0"/>
      <point x="45.0" y="413.0"/>
      <point x="45.0" y="440.0" type="curve" smooth="yes"/>
      <point x="45.0" y="458.0"/>
      <point x="59.0" y="474.0"/>
      <point x="83.0" y="474.0" type="curve" smooth="yes"/>
      <point x="145.0" y="474.0"/>
      <point x="169.0" y="425.0"/>
    </contour>
  </outline>
</glyph>
<glyph name="n" format="2">
  <advance width="612.0"/>
  <unicode hex="006E"/>
  <outline>
    <contour>
      <point x="541.0" y="-10.0" type="curve" smooth="yes"/>
      <point x="573.0" y="-10.0"/>
      <point x="588.0" y="20.0"/>
      <point x="588.0" y="57.0" type="curve" smooth="yes"/>
      <point x="588.0" y="73.0"/>
      <point x="582.0" y="86.0"/>
      <point x="572.0" y="94.0" type="curve" smooth="yes"/>
      <point x="525.692267796" y="133.1220496207"/>
      <point x="524.0" y="211.0"/>
      <point x="524.0" y="356.0" type="curve" smooth="yes"/>
      <point x="524.0" y="445.8333333333"/>
      <point x="462.9534883721" y="510.0"/>
      <point x="399.0" y="510.0" type="curve" smooth="yes"/>
      <point x="309.0" y="510.0"/>
      <point x="208.0" y="422.0"/>
      <point x="147.0" y="226.0" type="curve"/>
      <point x="168.0" y="266.0" type="line"/>
      <point x="175.1165591592" y="364.6151769197"/>
      <point x="180.0" y="393.2321428571"/>
      <point x="180.0" y="437.0" type="curve" smooth="yes"/>
      <point x="180.0" y="485.7826086957"/>
      <point x="135.265060241" y="503.0"/>
      <point x="101.0" y="503.0" type="curve" smooth="yes"/>
      <point x="74.0" y="503.0"/>
      <point x="59.0" y="486.0"/>
      <point x="59.0" y="463.0" type="curve" smooth="yes"/>
      <point x="59.0" y="339.0547945205"/>
      <point x="45.0" y="286.698630137"/>
      <point x="45.0" y="151.0" type="curve" smooth="yes"/>
      <point x="45.0" y="58.0"/>
      <point x="71.9879518072" y="-9.0"/>
      <point x="125.0" y="-9.0" type="curve" smooth="yes"/>
      <point x="160.4782608696" y="-9.0"/>
      <point x="180.0118487309" y="9.0455720418"/>
      <point x="193.0" y="59.0" type="curve" smooth="yes"/>
      <point x="241.0169028207" y="236.0623291512"/>
      <point x="350.1979695431" y="387.0"/>
      <point x="389.0" y="387.0" type="curve" smooth="yes"/>
      <point x="403.0" y="387.0"/>
      <point x="415.0" y="383.0"/>
      <point x="432.0" y="377.0" type="curve"/>
      <point x="391.0" y="408.0" type="line"/>
      <point x="401.0" y="377.0"/>
      <point x="403.0" y="367.0"/>
      <point x="403.0" y="269.0" type="curve" smooth="yes"/>
      <point x="403.0" y="108.0"/>
      <point x="458.0" y="-10.0"/>
    </contour>
  </outline>
</glyph>
<glyph name="o" format="2">
  <advance width="600.0"/>
  <unicode hex="006F"/>
  <outline>
    <contour>
      <point x="315.0" y="-12.0" type="curve" smooth="yes"/>
      <point x="457.0" y="-12.0"/>
      <point x="565.0" y="108.0"/>
      <point x="565.0" y="266.0" type="curve" smooth="yes"/>
      <point x="565.0" y="412.0"/>
      <point x="472.0" y="504.0"/>
      <point x="316.0" y="504.0" type="curve" smooth="yes"/>
      <point x="208.0" y="504.0"/>
      <point x="134.0" y="397.0"/>
      <point x="134.0" y="354.0" type="curve" smooth="yes"/>
      <point x="134.0" y="315.0"/>
      <point x="155.0" y="303.0"/>
      <point x="181.0" y="303.0" type="curve" smooth="yes"/>
      <point x="214.4769230769" y="303.0"/>
      <point x="219.8655094272" y="329.8655094272"/>
      <point x="245.0" y="355.0" type="curve" smooth="yes"/>
      <point x="265.5501833258" y="375.5501833258"/>
      <point x="291.575" y="383.0"/>
      <point x="326.0" y="383.0" type="curve" smooth="yes"/>
      <point x="398.96" y="383.0"/>
      <point x="446.0" y="338.0"/>
      <point x="446.0" y="265.0" type="curve" smooth="yes"/>
      <point x="446.0" y="171.0"/>
      <point x="392.0" y="109.0"/>
      <point x="311.0" y="109.0" type="curve" smooth="yes"/>
      <point x="215.0" y="109.0"/>
      <point x="154.0" y="171.0"/>
      <point x="154.0" y="266.0" type="curve" smooth="yes"/>
      <point x="154.0" y="322.0"/>
      <point x="195.5330776904" y="361.8362241948"/>
      <point x="238.0" y="385.0" type="curve" smooth="yes"/>
      <point x="281.0" y="408.0"/>
      <point x="296.0" y="430.0"/>
      <point x="296.0" y="467.0" type="curve" smooth="yes"/>
      <point x="296.0" y="499.0"/>
      <point x="272.0" y="511.0"/>
      <point x="245.0" y="511.0" type="curve" smooth="yes"/>
      <point x="142.0" y="509.0"/>
      <point x="35.0" y="386.0"/>
      <point x="35.0" y="266.0" type="curve" smooth="yes"/>
      <point x="35.0" y="104.0"/>
      <point x="152.0" y="-12.0"/>
    </contour>
  </outline>
</glyph>
<glyph name="p" format="2">
  <advance width="574.0"/>
  <unicode hex="0070"/>
  <outline>
    <contour>
      <point x="163.0" y="373.6" type="curve" smooth="yes"/>
      <point x="163.0" y="216.6"/>
      <point x="215.0" y="97.4"/>
      <point x="215.0" y="-46.0" type="curve" smooth="yes"/>
      <point x="215.0" y="-169.2"/>
      <point x="194.2" y="-261.0"/>
      <point x="130.6" y="-261.0" type="curve" smooth="yes"/>
      <point x="101.4" y="-261.0"/>
      <point x="75.6" y="-242.8"/>
      <point x="75.6" y="-200.2" type="curve" smooth="yes"/>
      <point x="75.6" y="-155.2"/>
      <point x="101.4" y="-134.2"/>
      <point x="101.4" y="-29.2" type="curve" smooth="yes"/>
      <point x="101.4" y="117.0"/>
      <point x="51.0" y="255.8"/>
      <point x="46.6" y="406.0" type="curve" smooth="yes"/>
      <point x="45.8" y="438.6"/>
      <point x="61.6" y="456.0"/>
      <point x="88.4" y="456.0" type="curve" smooth="yes"/>
      <point x="128.63076923074" y="456.0"/>
      <point x="163.0" y="418.2"/>
    </contour>
    <contour>
      <point x="206.6" y="507.6" type="curve" smooth="yes"/>
      <point x="386.0" y="507.6"/>
      <point x="528.8" y="390.0"/>
      <point x="528.8" y="194.6" type="curve" smooth="yes"/>
      <point x="528.8" y="78.4"/>
      <point x="442.4" y="-10.0"/>
      <point x="313.2" y="-10.0" type="curve" smooth="yes"/>
      <point x="210.0" y="-10.0"/>
      <point x="132.0" y="45.0"/>
      <point x="132.0" y="104.6" type="curve" smooth="yes"/>
      <point x="132.0" y="123.0"/>
      <point x="144.0" y="140.0"/>
      <point x="163.2" y="140.0" type="curve" smooth="yes"/>
      <point x="195.6" y="140.0"/>
      <point x="209.8" y="97.2"/>
      <point x="298.6" y="97.2" type="curve" smooth="yes"/>
      <point x="367.8" y="97.2"/>
      <point x="415.2" y="127.6"/>
      <point x="415.2" y="209.0" type="curve" smooth="yes"/>
      <point x="415.2" y="325.0"/>
      <point x="315.4" y="398.6"/>
      <point x="208.0" y="398.6" type="curve" smooth="yes"/>
      <point x="181.8" y="398.6"/>
      <point x="156.4" y="390.0"/>
      <point x="133.6" y="390.0" type="curve" smooth="yes"/>
      <point x="104.2" y="390.0"/>
      <point x="79.2" y="414.4"/>
      <point x="79.2" y="443.0" type="curve" smooth="yes"/>
      <point x="79.2" y="487.4"/>
      <point x="118.2" y="507.6"/>
    </contour>
  </outline>
</glyph>
<glyph name="q" format="2">
  <advance width="582.0"/>
  <unicode hex="0071"/>
  <outline>
    <contour>
      <point x="426.6" y="330.2" type="curve" smooth="yes"/>
      <point x="452.8" y="330.2"/>
      <point x="474.2" y="351.55625"/>
      <point x="474.2" y="375.6" type="curve" smooth="yes"/>
      <point x="474.2" y="438.0375"/>
      <point x="412.4" y="507.0"/>
      <point x="321.0" y="507.0" type="curve" smooth="yes"/>
      <point x="179.0" y="507.0"/>
      <point x="33.0" y="339.38501628666"/>
      <point x="33.0" y="184.0" type="curve" smooth="yes"/>
      <point x="33.0" y="67.41212121212"/>
      <point x="94.0" y="-10.0"/>
      <point x="217.0" y="-10.0" type="curve" smooth="yes"/>
      <point x="303.4" y="-10.0"/>
      <point x="381.4" y="35.2"/>
      <point x="434.0" y="115.8" type="curve" smooth="yes"/>
      <point x="482.4" y="180.8"/>
      <point x="411.44429289018" y="185.09522604136"/>
      <point x="409.6" y="133.4" type="curve" smooth="yes"/>
      <point x="404.17405352802" y="-7.888843470520001"/>
      <point x="412.2" y="-46.2"/>
      <point x="414.6" y="-195.6" type="curve" smooth="yes"/>
      <point x="415.8" y="-229.6"/>
      <point x="439.0" y="-260.0"/>
      <point x="472.6" y="-260.0" type="curve" smooth="yes"/>
      <point x="509.8" y="-260.0"/>
      <point x="546.77307010764" y="-230.4735636558"/>
      <point x="586.0" y="-196.0" type="curve" smooth="yes"/>
      <point x="598.0" y="-185.0"/>
      <point x="606.0" y="-169.0"/>
      <point x="606.0" y="-151.0" type="curve" smooth="yes"/>
      <point x="606.0" y="-115.30526315792001"/>
      <point x="591.8" y="-85.8"/>
      <point x="574.2" y="-85.8" type="curve" smooth="yes"/>
      <point x="550.2" y="-85.8"/>
      <point x="532.57026354482" y="-110.50270654580001"/>
      <point x="503.0" y="-127.4" type="curve" smooth="yes"/>
      <point x="478.54594723348004" y="-141.22226954928"/>
      <point x="522.2" y="-171.6"/>
      <point x="521.0" y="-133.4" type="curve" smooth="yes"/>
      <point x="518.6" y="7.945905707220003"/>
      <point x="514.01785716448" y="69.24553480042"/>
      <point x="512.0" y="194.2" type="curve"/>
      <point x="521.6166474397" y="222.12046253466"/>
      <point x="536.0" y="262.25957446807996"/>
      <point x="536.0" y="308.0" type="curve" smooth="yes"/>
      <point x="536.0" y="341.86666666664"/>
      <point x="513.17647058826" y="368.0"/>
      <point x="476.0" y="368.0" type="curve" smooth="yes"/>
      <point x="454.0" y="368.0"/>
      <point x="442.0" y="356.0"/>
      <point x="437.2" y="335.8" type="curve" smooth="yes"/>
      <point x="402.0" y="189.4"/>
      <point x="318.0" y="97.0"/>
      <point x="217.0" y="97.0" type="curve" smooth="yes"/>
      <point x="170.32857142858" y="97.0"/>
      <point x="144.0" y="124.23870967740001"/>
      <point x="144.0" y="175.0" type="curve" smooth="yes"/>
      <point x="144.0" y="276.76"/>
      <point x="242.10918367344001" y="399.0"/>
      <point x="321.0" y="399.0" type="curve" smooth="yes"/>
      <point x="354.8" y="399.0"/>
      <point x="369.4" y="386.4"/>
      <point x="389.8" y="355.2" type="curve" smooth="yes"/>
      <point x="400.01279635234" y="338.0042059275"/>
      <point x="412.2" y="330.2"/>
    </contour>
  </outline>
</glyph>
<glyph name="r" format="2">
  <advance width="492.0"/>
  <unicode hex="0072"/>
  <outline>
    <contour>
      <point x="165.0" y="-12.0" type="curve" smooth="yes"/>
      <point x="200.44642857142" y="-12.0"/>
      <point x="208.8" y="7.2"/>
      <point x="219.6" y="76.8" type="curve" smooth="yes"/>
      <point x="241.8" y="239.8"/>
      <point x="276.27797644216" y="337.55648772358"/>
      <point x="419.8" y="392.0" type="curve" smooth="yes"/>
      <point x="450.90474306716" y="404.0466600735"/>
      <point x="459.4" y="424.73658536588"/>
      <point x="459.4" y="445.4" type="curve" smooth="yes"/>
      <point x="459.4" y="481.24615384614003"/>
      <point x="447.8" y="506.6"/>
      <point x="412.2" y="506.6" type="curve" smooth="yes"/>
      <point x="315.0" y="506.6"/>
      <point x="191.6" y="398.2"/>
      <point x="156.6" y="182.8" type="curve"/>
      <point x="199.4" y="171.60000000000002" type="line"/>
      <point x="195.8" y="430.4"/>
      <point x="140.4" y="497.8"/>
      <point x="78.0" y="497.8" type="curve" smooth="yes"/>
      <point x="55.878571428579995" y="497.8"/>
      <point x="37.8" y="484.4"/>
      <point x="37.8" y="464.4" type="curve" smooth="yes"/>
      <point x="37.8" y="443.0"/>
      <point x="43.59260872602" y="429.96080737964"/>
      <point x="59.2" y="394.0" type="curve" smooth="yes"/>
      <point x="88.13438414972" y="326.19472730868"/>
      <point x="101.4" y="206.6"/>
      <point x="101.4" y="74.2" type="curve" smooth="yes"/>
      <point x="101.4" y="27.0"/>
      <point x="132.47428571426" y="-12.0"/>
    </contour>
  </outline>
</glyph>
<glyph name="s" format="2">
  <advance width="501.0"/>
  <unicode hex="0073"/>
  <outline>
    <contour>
      <point x="183.0" y="-10.0" type="curve" smooth="yes"/>
      <point x="324.0" y="-10.0"/>
      <point x="458.0" y="39.8"/>
      <point x="458.0" y="152.0" type="curve" smooth="yes"/>
      <point x="458.0" y="280.6"/>
      <point x="194.4" y="273.6"/>
      <point x="164.2" y="341.6" type="curve"/>
      <point x="195.4" y="372.2"/>
      <point x="245.8" y="397.2"/>
      <point x="322.6" y="397.2" type="curve"/>
      <point x="347.2" y="397.2"/>
      <point x="363.6" y="393.6"/>
      <point x="376.8" y="393.6" type="curve" smooth="yes"/>
      <point x="397.2" y="393.6"/>
      <point x="410.0" y="410.8"/>
      <point x="410.0" y="435.8" type="curve" smooth="yes"/>
      <point x="410.0" y="468.6"/>
      <point x="377.6" y="507.2"/>
      <point x="325.0" y="508.2" type="curve" smooth="yes"/>
      <point x="205.2" y="511.2"/>
      <point x="60.0" y="445.2"/>
      <point x="60.0" y="344.0" type="curve" smooth="yes"/>
      <point x="60.0" y="211.6"/>
      <point x="307.6" y="208.4"/>
      <point x="352.0" y="152.2" type="curve"/>
      <point x="328.94903767235996" y="113.33246865374"/>
      <point x="264.0" y="97.0"/>
      <point x="185.4" y="97.0" type="curve" smooth="yes"/>
      <point x="117.6" y="97.0"/>
      <point x="105.6" y="123.0"/>
      <point x="76.2" y="123.0" type="curve" smooth="yes"/>
      <point x="52.4" y="123.0"/>
      <point x="40.0" y="106.0"/>
      <point x="40.0" y="86.0" type="curve" smooth="yes"/>
      <point x="40.0" y="40.8"/>
      <point x="90.8" y="-10.0"/>
    </contour>
  </outline>
</glyph>
<glyph name="t" format="2">
  <advance width="467.0"/>
  <unicode hex="0074"/>
  <outline>
    <contour>
      <point x="178.4" y="310.8" type="curve" smooth="yes"/>
      <point x="178.4" y="416.0"/>
      <point x="197.4" y="460.4"/>
      <point x="197.4" y="558.0" type="curve" smooth="yes"/>
      <point x="197.4" y="664.4"/>
      <point x="161.84642857142" y="710.0"/>
      <point x="109.2" y="710.0" type="curve" smooth="yes"/>
      <point x="77.63076923076" y="710.0"/>
      <point x="70.4" y="693.91"/>
      <point x="70.4" y="673.8" type="curve" smooth="yes"/>
      <point x="70.4" y="640.53684210526"/>
      <point x="86.8" y="620.4"/>
      <point x="86.8" y="553.0" type="curve" smooth="yes"/>
      <point x="86.8" y="467.0"/>
      <point x="69.0" y="406.5195020747"/>
      <point x="69.0" y="306.0" type="curve" smooth="yes"/>
      <point x="69.0" y="114.6"/>
      <point x="131.6" y="-13.0"/>
      <point x="307.4" y="-13.0" type="curve" smooth="yes"/>
      <point x="384.6" y="-13.0"/>
      <point x="426.6" y="28.8"/>
      <point x="426.6" y="81.0" type="curve" smooth="yes"/>
      <point x="426.6" y="107.4"/>
      <point x="418.13333333334" y="120.4"/>
      <point x="399.0" y="120.4" type="curve" smooth="yes"/>
      <point x="372.86760563378" y="120.4"/>
      <point x="366.76901408448" y="98.6"/>
      <point x="319.2" y="98.6" type="curve" smooth="yes"/>
      <point x="225.75555555554" y="98.6"/>
      <point x="178.4" y="153.2"/>
    </contour>
    <contour>
      <point x="173.6" y="363.0" type="curve" smooth="yes"/>
      <point x="235.9525685762" y="388.82783128282"/>
      <point x="288.7243672883" y="402.243697274"/>
      <point x="379.8" y="408.8" type="curve" smooth="yes"/>
      <point x="405.19385141606" y="410.79950811328"/>
      <point x="417.2" y="423.99999999998"/>
      <point x="417.2" y="444.8" type="curve" smooth="yes"/>
      <point x="417.2" y="478.25454545454"/>
      <point x="382.7395348837" y="507.0"/>
      <point x="339.0" y="507.0" type="curve" smooth="yes"/>
      <point x="287.75801104974" y="507.0"/>
      <point x="221.76513264194" y="493.7056046822"/>
      <point x="171.0" y="475.2" type="curve" smooth="yes"/>
      <point x="115.0" y="454.6"/>
      <point x="107.8" y="430.6"/>
      <point x="107.8" y="399.4" type="curve" smooth="yes"/>
      <point x="107.8" y="366.8"/>
      <point x="131.8" y="345.2"/>
    </contour>
    <component base="t.001"/>
  </outline>
</glyph>
<glyph name="u" format="2">
  <advance width="603.0"/>
  <unicode hex="0075"/>
  <outline>
    <contour>
      <point x="315.0" y="-10.0" type="curve" smooth="yes"/>
      <point x="435.74594594592" y="-10.0"/>
      <point x="531.0" y="115.05388601034001"/>
      <point x="531.0" y="373.4" type="curve" smooth="yes"/>
      <point x="531.0" y="471.8"/>
      <point x="504.08085106384" y="507.4"/>
      <point x="459.2" y="507.4" type="curve" smooth="yes"/>
      <point x="426.8" y="507.4"/>
      <point x="417.8" y="489.37647058826"/>
      <point x="417.8" y="459.4" type="curve" smooth="yes"/>
      <point x="417.8" y="425.62376237624"/>
      <point x="423.6" y="406.0"/>
      <point x="423.6" y="356.4" type="curve" smooth="yes"/>
      <point x="423.6" y="194.2"/>
      <point x="379.8" y="99.0"/>
      <point x="303.0" y="99.0" type="curve" smooth="yes"/>
      <point x="238.0" y="99.0"/>
      <point x="162.4" y="211.4"/>
      <point x="162.4" y="307.4" type="curve" smooth="yes"/>
      <point x="162.4" y="384.8"/>
      <point x="185.6" y="405.2"/>
      <point x="185.6" y="441.0" type="curve" smooth="yes"/>
      <point x="185.6" y="477.2"/>
      <point x="158.4" y="506.4"/>
      <point x="124.6" y="506.4" type="curve" smooth="yes"/>
      <point x="105.8" y="506.4"/>
      <point x="90.6" y="494.2"/>
      <point x="85.0" y="478.2" type="curve" smooth="yes"/>
      <point x="63.0" y="422.0"/>
      <point x="53.0" y="368.86117647056"/>
      <point x="53.0" y="307.4" type="curve" smooth="yes"/>
      <point x="53.0" y="174.66625"/>
      <point x="155.74776119402" y="-10.0"/>
    </contour>
  </outline>
</glyph>
<glyph name="v" format="2">
  <advance width="569.0"/>
  <unicode hex="0076"/>
  <outline>
    <contour>
      <point x="211.0" y="43.0" type="curve" smooth="yes"/>
      <point x="235.34604670320002" y="5.8809299452"/>
      <point x="255.93023255812" y="-10.0"/>
      <point x="286.6" y="-10.0" type="curve" smooth="yes"/>
      <point x="310.14285714284" y="-10.0"/>
      <point x="321.86938049534" y="0.76399026174"/>
      <point x="334.4" y="30.6" type="curve" smooth="yes"/>
      <point x="403.90037430264" y="193.45230550914"/>
      <point x="433.8" y="282.4"/>
      <point x="524.2" y="406.2" type="curve" smooth="yes"/>
      <point x="531.3420126042801" y="416.02751575538"/>
      <point x="536.2" y="428.56216216218"/>
      <point x="536.2" y="442.0" type="curve" smooth="yes"/>
      <point x="536.2" y="472.86153846152"/>
      <point x="508.08571428574004" y="506.8"/>
      <point x="483.0" y="506.8" type="curve" smooth="yes"/>
      <point x="461.91219512196" y="506.8"/>
      <point x="452.05636693624" y="500.69701699404"/>
      <point x="436.8" y="481.8" type="curve" smooth="yes"/>
      <point x="356.12594335062" y="380.29706824948"/>
      <point x="319.8" y="262.8"/>
      <point x="257.2" y="118.4" type="curve"/>
      <point x="294.8" y="116.2" type="line"/>
      <point x="255.2" y="189.4"/>
      <point x="225.34685671222" y="293.10418605186"/>
      <point x="195.2" y="376.4" type="curve" smooth="yes"/>
      <point x="170.65146326849998" y="442.52943128398"/>
      <point x="138.6" y="504.8"/>
      <point x="72.4" y="504.8" type="curve" smooth="yes"/>
      <point x="47.0" y="504.8"/>
      <point x="33.8" y="490.0"/>
      <point x="33.8" y="472.8" type="curve" smooth="yes"/>
      <point x="33.8" y="427.2"/>
      <point x="66.0" y="414.8"/>
      <point x="118.2" y="272.4" type="curve" smooth="yes"/>
      <point x="147.4" y="193.4"/>
      <point x="181.38582188962002" y="88.59441430926"/>
    </contour>
  </outline>
</glyph>
<glyph name="w" format="2">
  <advance width="857.0"/>
  <unicode hex="0077"/>
  <outline>
    <contour>
      <point x="130.0" y="466.0" type="curve" smooth="yes"/>
      <point x="177.0" y="390.0"/>
      <point x="185.0" y="187.0"/>
      <point x="248.0" y="108.0" type="curve" smooth="yes"/>
      <point x="270.0" y="81.0"/>
      <point x="188.0" y="77.0"/>
      <point x="209.0" y="109.0" type="curve" smooth="yes"/>
      <point x="248.0" y="170.0"/>
      <point x="263.0" y="275.0"/>
      <point x="283.0" y="335.0" type="curve" smooth="yes"/>
      <point x="324.0" y="467.0"/>
      <point x="361.0" y="509.0"/>
      <point x="412.0" y="509.0" type="curve" smooth="yes"/>
      <point x="473.8947368421" y="509.0"/>
      <point x="509.2146214542" y="457.4505690773"/>
      <point x="559.0" y="330.0" type="curve" smooth="yes"/>
      <point x="587.1950813005" y="255.4844279916"/>
      <point x="601.1802366383" y="158.4077414685"/>
      <point x="656.0" y="116.0" type="curve" smooth="yes"/>
      <point x="696.4188280972" y="84.3998253058"/>
      <point x="604.0" y="74.0"/>
      <point x="630.0" y="100.0" type="curve" smooth="yes"/>
      <point x="678.0" y="148.0"/>
      <point x="677.0" y="320.0"/>
      <point x="699.0" y="407.0" type="curve" smooth="yes"/>
      <point x="713.0" y="463.0"/>
      <point x="750.0" y="511.0"/>
      <point x="796.0" y="511.0" type="curve" smooth="yes"/>
      <point x="826.5925925926" y="511.0"/>
      <point x="855.0" y="482.0"/>
      <point x="855.0" y="452.0" type="curve" smooth="yes"/>
      <point x="855.0" y="431.0"/>
      <point x="844.0" y="411.0"/>
      <point x="828.0" y="397.0" type="curve" smooth="yes"/>
      <point x="785.0" y="358.0"/>
      <point x="779.0" y="244.0"/>
      <point x="766.0" y="161.0" type="curve" smooth="yes"/>
      <point x="743.0" y="17.0"/>
      <point x="696.0" y="-13.0"/>
      <point x="652.0" y="-13.0" type="curve" smooth="yes"/>
      <point x="610.075" y="-13.0"/>
      <point x="581.6899054924" y="7.5146249276"/>
      <point x="535.0" y="85.0" type="curve" smooth="yes"/>
      <point x="478.6244042596" y="177.617050145"/>
      <point x="457.5122373913" y="333.4223706013"/>
      <point x="410.0" y="387.0" type="curve" smooth="yes"/>
      <point x="382.541329279" y="416.0738866457"/>
      <point x="454.4834323678" y="415.1029794277"/>
      <point x="431.0" y="390.0" type="curve" smooth="yes"/>
      <point x="380.0" y="334.0"/>
      <point x="364.0" y="205.0"/>
      <point x="312.0" y="70.0" type="curve" smooth="yes"/>
      <point x="288.0" y="8.0"/>
      <point x="262.0" y="-15.0"/>
      <point x="223.0" y="-15.0" type="curve" smooth="yes"/>
      <point x="172.4285714286" y="-15.0"/>
      <point x="136.7478705191" y="28.0381802153"/>
      <point x="103.0" y="167.0" type="curve" smooth="yes"/>
      <point x="81.0" y="248.0"/>
      <point x="58.0" y="351.0"/>
      <point x="17.0" y="420.0" type="curve" smooth="yes"/>
      <point x="-17.0" y="477.0"/>
      <point x="11.0" y="512.0"/>
      <point x="57.0" y="512.0" type="curve" smooth="yes"/>
      <point x="88.0" y="512.0"/>
      <point x="108.0" y="502.0"/>
    </contour>
  </outline>
</glyph>
<glyph name="x" format="2">
  <advance width="535.0"/>
  <unicode hex="0078"/>
  <outline>
    <contour>
      <point x="471.8" y="401.6" type="curve" smooth="yes"/>
      <point x="308.2" y="304.4"/>
      <point x="168.0" y="103.2"/>
      <point x="126.4" y="-116.4" type="curve" smooth="yes"/>
      <point x="119.80000000000001" y="-151.0"/>
      <point x="99.2" y="-173.8"/>
      <point x="77.8" y="-173.8" type="curve" smooth="yes"/>
      <point x="58.4" y="-173.8"/>
      <point x="32.6" y="-164.8"/>
      <point x="32.6" y="-106.4" type="curve" smooth="yes"/>
      <point x="32.6" y="65.80000000000001"/>
      <point x="183.6" y="324.4"/>
      <point x="359.2" y="457.6" type="curve" smooth="yes"/>
      <point x="410.8" y="498.0"/>
      <point x="438.8" y="508.2"/>
      <point x="459.4" y="508.2" type="curve" smooth="yes"/>
      <point x="490.6" y="508.2"/>
      <point x="505.8" y="488.4"/>
      <point x="505.8" y="453.6" type="curve" smooth="yes"/>
      <point x="505.8" y="433.6"/>
      <point x="497.8" y="417.6"/>
    </contour>
    <contour>
      <point x="455.2" y="125.6" type="curve" smooth="yes"/>
      <point x="496.2" y="67.6"/>
      <point x="502.2" y="40.6"/>
      <point x="502.2" y="21.6" type="curve" smooth="yes"/>
      <point x="502.2" y="0.20000000000000018"/>
      <point x="486.6" y="-12.4"/>
      <point x="458.2" y="-12.4" type="curve" smooth="yes"/>
      <point x="439.8" y="-12.4"/>
      <point x="413.0" y="-3.2"/>
      <point x="385.6" y="35.8" type="curve" smooth="yes"/>
      <point x="304.6" y="148.6"/>
      <point x="168.8" y="306.0"/>
      <point x="82.2" y="384.2" type="curve" smooth="yes"/>
      <point x="50.4" y="412.6"/>
      <point x="31.6" y="432.8"/>
      <point x="31.6" y="462.4" type="curve" smooth="yes"/>
      <point x="31.6" y="482.2"/>
      <point x="44.2" y="507.0"/>
      <point x="70.8" y="507.0" type="curve" smooth="yes"/>
      <point x="91.2" y="507.0"/>
      <point x="111.4" y="501.6"/>
      <point x="151.4" y="467.0" type="curve" smooth="yes"/>
      <point x="220.0" y="408.0"/>
      <point x="392.6" y="212.2"/>
    </contour>
  </outline>
</glyph>
<glyph name="y" format="2">
  <advance width="587.0"/>
  <unicode hex="0079"/>
  <outline>
    <contour>
      <point x="177.4" y="425.4" type="curve" smooth="yes"/>
      <point x="179.8008918154" y="479.61360018476"/>
      <point x="166.54285714286" y="507.4"/>
      <point x="114.2" y="507.4" type="curve" smooth="yes"/>
      <point x="81.4125" y="507.4"/>
      <point x="56.0" y="480.86107784432"/>
      <point x="56.0" y="343.0" type="curve" smooth="yes"/>
      <point x="56.0" y="137.35172413796"/>
      <point x="128.8" y="48.0"/>
      <point x="248.0" y="48.0" type="curve" smooth="yes"/>
      <point x="305.31521739132" y="48.0"/>
      <point x="386.6" y="80.2"/>
      <point x="437.8" y="244.6" type="curve" smooth="yes"/>
      <point x="448.2" y="277.0"/>
      <point x="397.59653648482" y="303.64271668716"/>
      <point x="399.4" y="275.8" type="curve" smooth="yes"/>
      <point x="401.2" y="135.8"/>
      <point x="414.0" y="79.2"/>
      <point x="414.0" y="-5.0" type="curve" smooth="yes"/>
      <point x="414.0" y="-91.50149253730001"/>
      <point x="387.6" y="-150.0"/>
      <point x="297.8" y="-150.0" type="curve" smooth="yes"/>
      <point x="190.4" y="-150.0"/>
      <point x="176.2" y="-122.0"/>
      <point x="139.0" y="-122.0" type="curve" smooth="yes"/>
      <point x="113.2" y="-122.0"/>
      <point x="102.2" y="-135.4"/>
      <point x="102.2" y="-164.6" type="curve" smooth="yes"/>
      <point x="102.2" y="-222.4"/>
      <point x="168.2" y="-261.0"/>
      <point x="301.4" y="-261.0" type="curve" smooth="yes"/>
      <point x="416.2" y="-261.0"/>
      <point x="521.0" y="-186.2"/>
      <point x="521.0" y="-5.0" type="curve" smooth="yes"/>
      <point x="521.0" y="186.6"/>
      <point x="481.0" y="231.4"/>
      <point x="498.0" y="400.0" type="curve" smooth="yes"/>
      <point x="506.74019503467997" y="484.6218853352"/>
      <point x="454.55" y="506.4"/>
      <point x="428.0" y="506.4" type="curve" smooth="yes"/>
      <point x="402.4" y="506.4"/>
      <point x="395.0" y="499.4"/>
      <point x="391.0" y="462.4" type="curve" smooth="yes"/>
      <point x="373.49059922716" y="288.95428254234"/>
      <point x="321.2" y="157.0"/>
      <point x="238.0" y="157.0" type="curve" smooth="yes"/>
      <point x="169.13033707868" y="157.0"/>
      <point x="170.2006161067" y="284.00990904908"/>
    </contour>
  </outline>
</glyph>
<glyph name="z" format="2">
  <advance width="597.0"/>
  <unicode hex="007A"/>
  <outline>
    <contour>
      <point x="88.4" y="478.0" type="curve" smooth="yes"/>
      <point x="155.16401102722" y="493.63875344604"/>
      <point x="236.85267857142" y="507.2"/>
      <point x="307.0" y="507.2" type="curve" smooth="yes"/>
      <point x="459.0" y="507.2"/>
      <point x="505.0" y="440.6"/>
      <point x="505.0" y="374.0" type="curve" smooth="yes"/>
      <point x="505.0" y="303.49696969696"/>
      <point x="424.03450891016" y="187.25478281916"/>
      <point x="143.8" y="102.0" type="curve"/>
      <point x="149.0" y="124.8" type="line"/>
      <point x="167.4" y="101.0"/>
      <point x="189.4" y="96.0"/>
      <point x="223.0" y="96.0" type="curve" smooth="yes"/>
      <point x="302.2" y="96.0"/>
      <point x="389.0" y="109.6"/>
      <point x="479.4" y="109.6" type="curve" smooth="yes"/>
      <point x="530.8" y="109.6"/>
      <point x="566.6" y="78.81333333334"/>
      <point x="566.6" y="42.0" type="curve" smooth="yes"/>
      <point x="566.6" y="18.0"/>
      <point x="550.6" y="0.0"/>
      <point x="519.4" y="0.0" type="curve" smooth="yes"/>
      <point x="434.6" y="0.0"/>
      <point x="305.4" y="-10.0"/>
      <point x="205.0" y="-10.0" type="curve" smooth="yes"/>
      <point x="83.6" y="-10.0"/>
      <point x="50.0" y="46.35"/>
      <point x="50.0" y="101.2" type="curve" smooth="yes"/>
      <point x="50.0" y="142.8"/>
      <point x="67.6" y="168.4"/>
      <point x="101.2" y="179.2" type="curve" smooth="yes"/>
      <point x="303.6408019616" y="247.04093155624"/>
      <point x="396.971510719" y="322.543021438"/>
      <point x="402.2" y="406.2" type="curve"/>
      <point x="429.2" y="357.6" type="line"/>
      <point x="400.80216971656" y="388.70023110992"/>
      <point x="371.4" y="400.0"/>
      <point x="317.0" y="400.0" type="curve" smooth="yes"/>
      <point x="199.4" y="400.0"/>
      <point x="136.8" y="370.4"/>
      <point x="100.4" y="370.4" type="curve" smooth="yes"/>
      <point x="76.7" y="370.4"/>
      <point x="52.6" y="402.09142857142"/>
      <point x="52.6" y="435.2" type="curve" smooth="yes"/>
      <point x="52.6" y="458.6"/>
      <point x="60.6" y="471.6"/>
    </contour>
  </outline>
</glyph>
<glyph name="R.001" format="2">
  <advance width="855.0"/>
  <outline>
    <contour>
      <point x="759.0" y="-14.0" type="curve" smooth="yes"/>
      <point x="810.0" y="-14.0"/>
      <point x="849.0" y="14.0"/>
      <point x="849.0" y="55.0" type="curve" smooth="yes"/>
      <point x="849.0" y="75.0"/>
      <point x="840.0" y="90.0"/>
      <point x="774.0" y="106.0" type="curve" smooth="yes"/>
      <point x="648.0" y="136.0"/>
      <point x="483.0" y="194.0"/>
      <point x="360.0" y="257.0" type="curve"/>
      <point x="360.0" y="210.0" type="line"/>
      <point x="600.0" y="287.0"/>
      <point x="749.0" y="448.0"/>
      <point x="749.0" y="578.0" type="curve" smooth="yes"/>
      <point x="749.0" y="676.0"/>
      <point x="673.0" y="740.0"/>
      <point x="590.0" y="740.0" type="curve" smooth="yes"/>
      <point x="432.0" y="740.0"/>
      <point x="278.0" y="622.0"/>
      <point x="175.0" y="455.0" type="curve"/>
      <point x="202.0" y="466.0" type="line"/>
      <point x="189.0" y="521.0"/>
      <point x="167.0" y="560.0"/>
      <point x="126.0" y="560.0" type="curve" smooth="yes"/>
      <point x="88.0" y="560.0"/>
      <point x="58.0" y="540.0"/>
      <point x="58.0" y="500.0" type="curve" smooth="yes"/>
      <point x="58.0" y="457.0"/>
      <point x="88.0" y="423.0"/>
      <point x="99.0" y="318.0" type="curve"/>
      <point x="66.0" y="238.0"/>
      <point x="54.0" y="185.0"/>
      <point x="54.0" y="133.0" type="curve" smooth="yes"/>
      <point x="54.0" y="37.0"/>
      <point x="91.0" y="-21.0"/>
      <point x="156.0" y="-23.0" type="curve" smooth="yes"/>
      <point x="186.0" y="-22.0"/>
      <point x="199.0" y="-6.0"/>
      <point x="199.0" y="26.0" type="curve" smooth="yes"/>
      <point x="199.0" y="66.0"/>
      <point x="202.0" y="178.0"/>
      <point x="199.0" y="256.0" type="curve"/>
      <point x="310.0" y="457.0"/>
      <point x="466.0" y="613.0"/>
      <point x="588.0" y="613.0" type="curve" smooth="yes"/>
      <point x="618.0" y="613.0"/>
      <point x="629.0" y="602.0"/>
      <point x="629.0" y="584.0" type="curve" smooth="yes"/>
      <point x="629.0" y="514.0"/>
      <point x="459.0" y="368.0"/>
      <point x="259.0" y="316.0" type="curve" smooth="yes"/>
      <point x="217.0" y="305.0"/>
      <point x="178.0" y="293.0"/>
      <point x="175.0" y="256.0" type="curve" smooth="yes"/>
      <point x="173.0" y="219.0"/>
      <point x="196.0" y="191.0"/>
      <point x="276.0" y="151.0" type="curve" smooth="yes"/>
      <point x="500.0" y="38.0"/>
      <point x="688.0" y="-14.0"/>
    </contour>
  </outline>
</glyph>
